<?xml version="1.0" encoding="UTF-8" standalone="no"?>
<!DOCTYPE svg PUBLIC "-//W3C//DTD SVG 1.1//EN" "http://www.w3.org/Graphics/SVG/1.1/DTD/svg11.dtd">
<svg xmlns="http://www.w3.org/2000/svg" version="1.1" viewBox="0 0 800 800" width="800.0pt" height="800.0pt">
<path d="M 388.60 0.00 L 410.61 0.00 L 411.53 0.05 C 416.68 0.44 421.84 0.64 427.00 0.93 C 482.67 4.61 537.48 20.06 586.77 46.22 C 640.12 74.40 686.88 114.81 722.56 163.44 C 759.26 213.29 784.10 271.73 794.35 332.80 C 797.70 351.59 799.08 370.53 800.00 389.58 L 800.00 410.61 C 799.02 430.47 797.58 450.22 793.91 469.79 C 783.11 531.56 757.38 590.56 719.57 640.57 C 681.01 691.80 630.04 733.54 572.15 761.14 C 524.64 783.88 472.58 796.95 419.98 799.45 C 417.12 799.60 414.27 799.84 411.41 800.00 L 388.40 800.00 C 384.94 799.77 381.47 799.49 378.00 799.33 C 314.00 796.03 250.98 776.89 195.93 744.07 C 139.18 710.40 91.03 662.51 57.05 605.95 C 30.70 562.23 12.96 513.52 4.95 463.11 C 2.02 445.65 0.89 428.07 0.00 410.41 L 0.00 389.39 C 0.71 376.90 1.33 364.43 2.86 352.01 C 9.41 297.02 27.58 243.51 55.93 195.93 C 89.47 139.40 137.14 91.39 193.43 57.43 C 242.68 27.60 298.43 8.70 355.67 2.47 C 366.62 1.09 377.61 0.77 388.60 0.00 Z" fill="#040000" />
<path d="M 379.38 21.41 C 395.56 20.57 411.81 20.70 427.97 21.87 C 480.27 25.59 531.65 40.44 577.91 65.09 C 636.06 95.90 685.88 142.38 720.98 198.03 C 750.24 244.50 769.32 297.29 776.12 351.80 C 782.13 399.00 779.24 447.36 767.56 493.49 C 752.31 553.52 722.17 609.63 680.30 655.30 C 641.93 697.53 594.00 730.91 541.00 752.05 C 488.22 773.34 430.74 782.16 374.00 778.26 C 322.27 774.87 271.36 760.55 225.36 736.64 C 179.80 713.06 139.25 679.94 106.70 640.31 C 68.92 594.44 42.36 539.54 29.60 481.52 C 20.18 438.23 18.30 393.27 24.22 349.36 C 32.07 289.11 55.16 230.81 90.25 181.24 C 123.28 134.65 166.86 95.46 216.90 67.89 C 266.68 40.38 322.56 24.35 379.38 21.41 Z" fill="#fdfbfb" />
<path d="M 363.24 51.17 C 369.92 50.47 375.49 53.47 380.60 57.41 C 384.12 60.20 386.00 64.70 388.54 68.46 C 392.24 73.96 392.57 81.00 393.85 87.35 C 395.33 96.17 398.05 104.03 398.17 113.02 C 398.40 121.62 400.98 130.90 399.40 139.27 C 398.19 147.22 395.97 155.24 389.83 160.84 C 385.32 165.11 379.83 166.11 374.17 168.15 C 368.84 170.03 363.73 169.32 358.36 170.26 C 352.53 171.79 346.64 174.14 340.41 172.62 C 338.53 172.02 335.97 171.19 335.40 169.05 C 333.77 164.14 334.03 158.19 333.59 153.06 C 332.11 138.70 329.71 124.50 327.93 110.18 C 326.30 94.54 323.50 79.03 321.26 63.47 C 321.11 61.48 320.62 58.75 322.14 57.16 C 324.11 54.80 327.82 54.72 330.64 54.34 C 341.52 53.41 352.37 52.20 363.24 51.17 Z" fill="#040000" />
<path d="M 471.07 55.85 C 476.59 57.72 482.52 61.20 485.65 66.27 C 488.53 72.01 490.39 78.16 489.77 84.66 C 488.12 103.79 485.98 122.64 481.28 141.30 C 480.42 145.53 479.51 149.66 477.57 153.54 C 474.35 160.18 470.27 167.00 463.47 170.48 C 457.36 173.67 450.54 173.20 443.95 172.10 C 436.21 170.89 427.51 167.80 422.00 162.01 C 416.42 155.33 414.33 145.49 414.48 136.98 C 415.18 127.98 417.04 119.06 418.18 110.10 C 419.35 99.95 422.09 90.46 424.34 80.50 C 425.52 75.34 426.83 70.49 430.44 66.44 C 433.83 62.63 436.84 57.57 441.67 55.66 C 451.14 51.71 461.53 52.70 471.07 55.85 Z" fill="#040000" />
<path d="M 350.42 63.18 C 351.31 62.18 353.37 62.31 353.57 63.83 C 353.25 66.04 349.35 65.45 350.42 63.18 Z" fill="#fdfbfb" />
<path d="M 460.15 63.05 C 461.93 61.87 463.11 64.62 460.99 65.04 C 459.85 64.73 459.57 64.06 460.15 63.05 Z" fill="#fdfbfb" />
<path d="M 444.60 65.04 C 445.58 64.00 447.57 64.49 447.83 65.93 C 447.61 68.18 443.61 67.05 444.60 65.04 Z" fill="#fdfbfb" />
<path d="M 353.10 70.31 C 354.68 70.58 354.26 72.51 352.84 72.62 C 351.26 72.35 351.67 70.42 353.10 70.31 Z" fill="#fdfbfb" />
<path d="M 359.30 70.10 L 360.01 69.68 L 360.73 70.09 L 360.74 70.91 L 360.03 71.33 L 359.31 70.93 L 359.30 70.10 Z" fill="#4faa42" />
<path d="M 338.03 71.30 L 338.85 71.30 L 339.26 72.02 L 338.85 72.74 L 338.03 72.74 L 337.62 72.02 L 338.03 71.30 Z" fill="#4faa42" />
<path d="M 367.21 70.97 C 368.92 70.62 369.62 72.64 367.98 73.33 C 366.24 73.67 365.58 71.72 367.21 70.97 Z" fill="#fdfbfb" />
<path d="M 454.28 71.05 L 455.01 70.65 L 455.72 71.08 L 455.70 71.90 L 454.98 72.30 L 454.27 71.87 L 454.28 71.05 Z" fill="#4faa42" />
<path d="M 460.17 70.91 C 461.85 70.52 462.17 72.31 460.74 72.96 C 459.05 73.38 458.76 71.56 460.17 70.91 Z" fill="#fdfbfb" />
<path d="M 345.67 73.10 C 346.79 71.83 349.52 72.95 348.64 74.71 C 347.55 76.01 344.82 74.82 345.67 73.10 Z" fill="#fdfbfb" />
<path d="M 359.43 73.59 C 363.96 75.52 366.30 79.85 366.60 84.63 C 367.10 91.74 369.03 98.59 369.33 105.71 C 369.43 111.33 371.25 116.66 371.46 122.28 C 371.58 126.23 372.90 129.89 373.40 133.74 C 373.14 137.84 373.40 143.13 369.98 145.98 C 367.83 148.00 365.01 150.05 362.17 147.88 C 359.34 145.18 358.39 140.30 357.24 136.67 C 356.36 133.99 357.58 131.83 357.68 129.00 C 357.13 124.09 355.93 119.26 355.49 114.30 C 353.89 107.47 354.06 100.51 352.43 93.70 C 351.61 88.58 350.56 83.22 350.91 78.03 C 351.15 73.80 355.93 72.21 359.43 73.59 Z" fill="#fdfbfb" />
<path d="M 471.16 73.88 C 472.85 73.52 473.60 75.53 471.98 76.25 C 470.28 76.59 469.54 74.62 471.16 73.88 Z" fill="#4faa42" />
<path d="M 539.97 76.02 C 545.71 78.98 551.15 82.58 556.57 86.07 C 555.54 91.09 554.10 95.89 551.15 100.14 C 547.14 105.95 544.17 112.32 540.21 118.16 C 533.92 130.35 528.57 143.05 522.26 155.24 C 520.31 159.41 517.78 163.53 516.43 167.92 C 516.88 171.01 518.94 173.81 521.82 175.08 C 527.63 177.74 533.68 179.88 539.50 182.53 C 542.34 183.75 545.54 186.60 545.55 189.91 C 543.57 194.18 541.48 198.37 539.70 202.75 C 538.37 205.69 536.30 206.72 533.11 206.14 C 528.00 204.96 523.91 200.20 519.06 197.97 C 509.53 193.45 499.80 189.30 490.29 184.73 C 486.79 182.78 483.33 181.87 482.23 177.53 C 481.15 174.87 482.61 173.03 483.72 170.73 C 487.48 164.12 491.39 157.61 494.74 150.78 C 496.46 147.23 498.37 143.86 500.61 140.62 C 503.33 136.65 505.03 132.40 507.06 128.07 C 512.70 116.14 518.98 104.48 524.44 92.47 C 526.65 87.73 528.22 82.42 531.07 78.05 C 532.99 75.07 536.94 74.36 539.97 76.02 Z" fill="#040000" />
<path d="M 449.37 77.14 C 450.88 76.10 451.95 78.46 450.14 78.86 C 449.15 78.61 448.90 78.03 449.37 77.14 Z" fill="#4faa42" />
<path d="M 461.72 79.28 C 464.00 81.39 465.95 84.63 464.98 87.83 C 464.12 91.49 462.92 94.29 464.48 97.97 C 461.93 101.95 461.16 104.74 461.00 109.48 C 462.20 109.68 463.40 109.89 464.61 110.09 C 462.41 111.34 459.97 111.55 459.51 114.46 C 458.05 122.36 457.45 130.46 456.20 138.40 C 455.56 142.96 451.48 146.80 449.31 150.91 C 447.16 150.13 444.82 149.60 443.43 147.62 C 441.91 145.47 441.27 142.56 440.77 140.02 C 439.74 135.60 442.41 130.87 442.05 126.27 C 440.89 124.76 439.46 123.43 438.15 122.04 C 439.56 122.71 440.97 123.39 442.38 124.07 C 445.45 111.90 446.87 99.49 449.13 87.17 C 449.90 83.73 451.75 79.73 454.87 77.84 C 457.31 76.47 459.81 77.57 461.72 79.28 Z" fill="#fdfbfb" />
<path d="M 477.28 79.06 L 478.01 78.68 L 478.71 79.11 L 478.69 79.93 L 477.96 80.32 L 477.25 79.89 L 477.28 79.06 Z" fill="#4faa42" />
<path d="M 345.23 80.92 C 347.04 79.75 348.21 82.48 346.05 82.89 C 344.91 82.59 344.64 81.93 345.23 80.92 Z" fill="#fdfbfb" />
<path d="M 474.22 82.98 C 475.98 81.81 477.18 84.60 475.07 85.00 C 473.94 84.67 473.66 84.00 474.22 82.98 Z" fill="#fdfbfb" />
<path d="M 342.42 84.17 C 343.91 83.17 345.02 85.56 343.18 85.90 C 342.20 85.62 341.94 85.04 342.42 84.17 Z" fill="#fdfbfb" />
<path d="M 370.13 85.50 C 371.48 84.77 372.55 86.41 371.45 87.42 C 370.10 88.14 369.03 86.51 370.13 85.50 Z" fill="#fdfbfb" />
<path d="M 436.18 85.49 C 437.66 84.47 438.75 86.84 436.95 87.22 C 435.96 86.94 435.70 86.36 436.18 85.49 Z" fill="#fdfbfb" />
<path d="M 378.19 87.25 C 380.77 86.63 379.46 89.78 377.74 89.70 C 376.21 89.32 377.16 87.62 378.19 87.25 Z" fill="#fdfbfb" />
<path d="M 341.19 88.19 L 342.02 88.22 L 342.40 88.94 L 341.97 89.65 L 341.15 89.62 L 340.76 88.89 L 341.19 88.19 Z" fill="#4faa42" />
<path d="M 438.17 88.90 C 439.91 88.52 440.52 90.56 438.93 91.28 C 437.18 91.65 436.59 89.64 438.17 88.90 Z" fill="#4faa42" />
<path d="M 467.45 90.27 C 468.63 89.43 470.47 91.18 469.66 92.40 C 468.51 93.27 466.65 91.45 467.45 90.27 Z" fill="#fdfbfb" />
<path d="M 473.31 90.19 L 474.04 89.79 L 474.75 90.21 L 474.74 91.04 L 474.01 91.44 L 473.30 91.02 L 473.31 90.19 Z" fill="#4faa42" />
<path d="M 481.15 90.08 C 482.92 88.90 484.10 91.65 481.98 92.07 C 480.84 91.75 480.56 91.09 481.15 90.08 Z" fill="#fdfbfb" />
<path d="M 351.22 93.13 C 349.48 94.06 347.77 94.68 345.84 95.13 C 347.54 93.13 348.75 93.21 351.22 93.13 Z" fill="#fdfbfb" />
<path d="M 339.91 93.84 C 339.59 94.59 339.27 95.35 338.94 96.10 C 337.95 96.43 336.95 96.75 335.93 97.03 C 337.22 95.92 338.54 94.85 339.91 93.84 Z" fill="#fdfbfb" />
<path d="M 343.20 95.21 C 344.98 94.02 346.13 96.80 344.03 97.22 C 342.89 96.90 342.62 96.24 343.20 95.21 Z" fill="#4faa42" />
<path d="M 379.19 95.37 C 380.84 94.46 382.22 96.41 380.83 97.67 C 379.18 98.59 377.85 96.64 379.19 95.37 Z" fill="#fdfbfb" />
<path d="M 432.16 95.13 C 433.94 93.94 435.09 96.71 432.99 97.13 C 431.86 96.83 431.58 96.16 432.16 95.13 Z" fill="#4faa42" />
<path d="M 474.28 98.00 L 475.00 97.60 L 475.71 98.02 L 475.70 98.85 L 474.98 99.25 L 474.27 98.83 L 474.28 98.00 Z" fill="#4faa42" />
<path d="M 213.40 101.26 C 216.47 99.83 219.19 101.53 221.40 103.60 C 224.70 106.86 227.56 111.84 228.80 116.30 C 229.58 119.03 227.98 121.29 225.90 122.88 C 220.36 127.09 214.35 130.67 208.72 134.73 C 206.83 135.95 206.97 137.99 206.87 139.99 C 206.60 143.76 209.78 147.07 211.74 150.07 C 211.08 152.30 210.45 154.54 209.92 156.81 C 213.37 155.52 216.99 154.65 220.39 153.27 C 226.47 150.04 231.44 144.73 237.56 141.57 C 241.43 140.05 243.36 144.24 245.43 146.64 C 247.84 150.03 252.71 154.30 252.14 158.78 C 250.44 161.09 247.93 162.92 245.73 164.75 C 241.65 167.98 237.82 171.52 233.61 174.55 C 231.84 175.89 230.06 176.83 228.97 178.86 C 230.66 179.36 232.30 179.16 234.02 178.95 C 236.37 182.09 237.15 183.67 236.78 187.61 C 238.00 187.95 239.21 188.28 240.43 188.61 C 240.80 189.96 241.17 191.31 241.54 192.66 C 243.97 193.06 246.48 193.69 248.94 193.67 C 251.71 193.30 254.37 191.21 256.51 189.51 C 261.35 185.34 266.46 179.83 272.22 176.94 C 276.41 175.21 278.55 179.66 280.70 182.34 C 283.16 185.99 287.67 190.89 285.72 195.60 C 283.71 198.69 279.64 200.62 276.60 202.60 C 269.67 206.53 263.87 211.95 257.03 216.01 C 253.92 217.87 250.87 219.69 248.32 222.30 C 245.90 224.55 243.33 227.70 239.96 228.35 C 237.91 228.65 235.46 228.99 234.22 226.92 C 225.17 214.54 216.53 201.83 207.75 189.25 C 204.06 183.90 200.87 178.32 196.69 173.32 C 188.24 162.75 179.79 152.13 171.70 141.29 C 169.21 138.33 170.09 134.78 171.52 131.56 C 172.98 129.73 175.22 128.43 177.14 127.11 C 185.58 121.59 193.93 115.91 202.30 110.29 C 206.31 107.69 209.17 103.33 213.40 101.26 Z" fill="#040000" />
<path d="M 349.32 102.12 L 350.05 101.72 L 350.76 102.15 L 350.74 102.97 L 350.02 103.37 L 349.31 102.94 L 349.32 102.12 Z" fill="#4faa42" />
<path d="M 442.50 104.10 C 444.04 103.06 445.02 105.47 443.21 105.82 C 442.24 105.55 442.00 104.98 442.50 104.10 Z" fill="#fdfbfb" />
<path d="M 337.15 106.88 C 335.82 108.63 334.92 109.41 332.77 110.03 C 334.08 108.49 335.30 107.68 337.15 106.88 Z" fill="#fdfbfb" />
<path d="M 351.41 108.06 L 352.12 107.64 L 352.84 108.05 L 352.84 108.87 L 352.13 109.29 L 351.41 108.88 L 351.41 108.06 Z" fill="#fdfbfb" />
<path d="M 373.03 108.18 L 373.86 108.17 L 374.27 108.88 L 373.86 109.59 L 373.04 109.60 L 372.62 108.89 L 373.03 108.18 Z" fill="#fdfbfb" />
<path d="M 425.07 110.26 L 425.89 110.25 L 426.31 110.97 L 425.90 111.69 L 425.08 111.70 L 424.66 110.98 L 425.07 110.26 Z" fill="#4faa42" />
<path d="M 478.98 110.30 L 479.81 110.29 L 480.23 111.00 L 479.83 111.72 L 479.00 111.73 L 478.58 111.02 L 478.98 110.30 Z" fill="#4faa42" />
<path d="M 330.17 113.16 L 331.00 113.17 L 331.40 113.90 L 330.97 114.60 L 330.15 114.59 L 329.75 113.87 L 330.17 113.16 Z" fill="#fdfbfb" />
<path d="M 209.32 117.17 L 210.04 116.76 L 210.75 117.17 L 210.75 118.00 L 210.03 118.41 L 209.31 117.99 L 209.32 117.17 Z" fill="#4faa42" />
<path d="M 346.17 117.20 C 347.95 116.02 349.10 118.79 346.99 119.21 C 345.86 118.89 345.58 118.23 346.17 117.20 Z" fill="#4faa42" />
<path d="M 376.16 117.24 C 377.96 116.03 379.05 118.79 376.96 119.24 C 375.83 118.94 375.56 118.27 376.16 117.24 Z" fill="#fdfbfb" />
<path d="M 463.03 117.27 L 463.86 117.28 L 464.26 118.01 L 463.84 118.72 L 463.02 118.71 L 462.61 117.99 L 463.03 117.27 Z" fill="#4faa42" />
<path d="M 531.20 118.31 L 532.03 118.31 L 532.44 119.03 L 532.02 119.74 L 531.19 119.73 L 530.79 119.02 L 531.20 118.31 Z" fill="#fdfbfb" />
<path d="M 428.15 119.16 L 428.98 119.17 L 429.38 119.89 L 428.95 120.60 L 428.13 120.59 L 427.73 119.87 L 428.15 119.16 Z" fill="#fdfbfb" />
<path d="M 394.40 123.22 C 395.50 121.95 397.36 123.05 396.53 124.61 C 395.42 125.90 393.59 124.77 394.40 123.22 Z" fill="#fdfbfb" />
<path d="M 343.08 124.10 C 344.90 124.47 343.87 126.85 342.34 125.82 C 341.85 124.94 342.10 124.36 343.08 124.10 Z" fill="#4faa42" />
<path d="M 421.18 124.11 C 422.43 122.86 424.48 124.14 423.56 125.78 C 422.32 127.07 420.25 125.74 421.18 124.11 Z" fill="#fdfbfb" />
<path d="M 476.65 124.22 C 477.58 123.28 479.40 123.77 479.64 125.09 C 479.41 127.14 475.69 126.08 476.65 124.22 Z" fill="#4faa42" />
<path d="M 432.17 125.03 C 434.02 125.29 433.04 127.72 431.50 126.79 C 430.98 125.94 431.20 125.35 432.17 125.03 Z" fill="#fdfbfb" />
<path d="M 623.44 127.55 C 628.07 131.99 632.66 136.65 636.39 141.88 C 633.57 145.85 630.85 149.99 627.20 153.20 C 624.38 155.71 621.59 158.24 619.03 161.02 C 615.82 164.53 611.92 167.21 608.83 170.85 C 602.32 178.32 595.76 185.76 589.21 193.20 C 585.02 197.98 580.19 202.27 576.19 207.19 C 574.50 209.00 575.00 211.32 575.63 213.45 C 576.60 216.34 579.57 218.28 581.85 220.11 C 585.75 223.23 589.80 226.19 593.57 229.46 C 595.93 231.54 597.67 234.52 597.13 237.75 C 593.99 241.52 590.46 244.76 588.06 249.14 C 594.42 247.81 600.13 245.40 606.25 243.32 C 613.08 240.90 619.63 239.03 626.09 236.06 C 631.88 233.35 637.90 232.10 643.96 229.89 C 658.87 224.56 673.67 218.92 688.57 213.55 C 691.41 212.72 695.16 211.10 697.83 213.13 C 700.45 215.08 701.68 219.07 703.18 221.89 C 705.37 226.66 709.66 230.30 711.12 235.15 C 711.85 237.54 710.57 239.41 709.19 241.22 C 705.55 245.66 699.36 248.27 695.48 252.46 C 693.54 254.54 691.62 256.61 689.40 258.39 C 679.04 266.66 669.04 275.38 658.76 283.75 C 655.99 285.98 653.36 288.35 651.06 291.07 C 647.90 294.79 644.17 297.30 640.53 300.54 C 635.88 304.68 631.17 309.53 626.00 313.06 C 624.35 314.06 622.78 315.22 620.83 314.18 C 617.23 312.34 616.16 308.58 614.78 305.10 C 613.60 301.66 610.93 299.84 609.17 296.81 C 609.53 291.37 616.67 287.32 619.37 282.84 C 618.91 278.00 615.40 272.00 610.72 270.17 C 606.14 269.25 600.98 272.55 596.33 271.75 C 594.29 271.10 592.86 269.01 591.74 267.29 C 588.74 262.20 585.76 257.54 585.07 251.52 C 582.63 250.62 579.92 249.82 577.97 248.04 C 575.20 245.53 573.18 242.16 570.52 239.47 C 561.20 230.82 550.93 223.12 541.77 214.29 C 539.54 212.35 539.37 208.90 539.90 206.20 C 541.85 203.24 544.88 200.88 547.40 198.39 C 553.71 192.68 559.19 186.20 565.24 180.26 C 571.74 174.91 576.45 168.27 582.18 162.17 C 591.12 152.43 600.06 142.69 608.61 132.59 C 610.75 130.21 612.96 127.34 615.76 125.73 C 618.65 124.31 621.27 125.52 623.44 127.55 Z" fill="#040000" />
<path d="M 436.15 126.14 C 437.94 124.95 439.08 127.73 436.98 128.15 C 435.85 127.83 435.57 127.16 436.15 126.14 Z" fill="#4faa42" />
<path d="M 518.45 127.75 C 517.01 127.80 515.57 127.79 514.13 127.73 C 514.56 124.79 517.07 126.74 518.45 127.75 Z" fill="#fdfbfb" />
<path d="M 419.29 129.23 C 419.81 129.75 419.81 129.75 419.29 129.23 Z" fill="#fdfbfb" />
<path d="M 520.18 130.17 C 521.96 128.98 523.10 131.76 521.00 132.18 C 519.87 131.87 519.59 131.20 520.18 130.17 Z" fill="#4faa42" />
<path d="M 196.25 131.02 L 196.98 130.63 L 197.68 131.05 L 197.67 131.87 L 196.94 132.27 L 196.23 131.85 L 196.25 131.02 Z" fill="#4faa42" />
<path d="M 201.22 131.18 C 203.04 131.53 202.06 133.94 200.52 132.90 C 200.02 132.02 200.25 131.44 201.22 131.18 Z" fill="#fdfbfb" />
<path d="M 352.23 132.18 C 354.01 130.99 355.16 133.77 353.06 134.19 C 351.93 133.87 351.65 133.20 352.23 132.18 Z" fill="#4faa42" />
<path d="M 505.32 134.40 C 506.23 133.46 508.09 134.03 508.42 135.26 C 508.23 137.22 504.36 136.27 505.32 134.40 Z" fill="#fdfbfb" />
<path d="M 347.77 135.79 C 347.77 136.93 347.75 138.06 347.74 139.20 C 345.99 138.40 344.26 137.56 342.57 136.65 C 344.30 136.06 345.92 135.64 347.77 135.79 Z" fill="#fdfbfb" />
<path d="M 199.18 136.27 C 200.87 136.54 200.68 138.74 199.03 138.87 C 197.31 138.60 197.52 136.43 199.18 136.27 Z" fill="#fdfbfb" />
<path d="M 381.24 136.05 C 384.05 135.97 381.87 139.10 380.14 138.58 C 378.51 137.83 380.04 136.18 381.24 136.05 Z" fill="#fdfbfb" />
<path d="M 437.05 136.25 C 438.92 135.96 439.44 138.28 437.72 138.94 C 435.83 139.28 435.26 136.87 437.05 136.25 Z" fill="#fdfbfb" />
<path d="M 476.14 136.23 C 477.92 135.05 479.07 137.82 476.97 138.24 C 475.83 137.92 475.56 137.25 476.14 136.23 Z" fill="#4faa42" />
<path d="M 463.08 138.10 C 464.84 136.91 465.99 139.67 463.91 140.11 C 462.77 139.79 462.49 139.12 463.08 138.10 Z" fill="#fdfbfb" />
<path d="M 352.21 140.20 C 354.04 140.63 352.93 142.96 351.43 141.89 C 350.96 141.00 351.22 140.44 352.21 140.20 Z" fill="#fdfbfb" />
<path d="M 383.26 141.38 C 384.70 140.54 386.07 142.26 384.90 143.46 C 383.49 144.29 382.06 142.57 383.26 141.38 Z" fill="#fdfbfb" />
<path d="M 345.27 143.11 C 346.52 141.84 348.61 143.02 347.63 144.71 C 346.39 146.02 344.33 144.77 345.27 143.11 Z" fill="#fdfbfb" />
<path d="M 428.17 142.94 C 429.60 143.28 431.00 143.72 432.40 144.17 C 431.03 144.84 429.64 145.48 428.25 146.10 C 428.21 145.05 428.18 143.99 428.17 142.94 Z" fill="#fdfbfb" />
<path d="M 521.04 144.28 L 521.87 144.30 L 522.27 145.02 L 521.84 145.72 L 521.01 145.71 L 520.61 144.99 L 521.04 144.28 Z" fill="#fdfbfb" />
<path d="M 204.08 145.26 L 204.90 145.26 L 205.31 145.98 L 204.90 146.70 L 204.08 146.70 L 203.67 145.98 L 204.08 145.26 Z" fill="#4faa42" />
<path d="M 464.30 145.16 L 465.01 144.76 L 465.72 145.18 L 465.72 146.01 L 465.00 146.41 L 464.29 145.99 L 464.30 145.16 Z" fill="#fdfbfb" />
<path d="M 183.52 147.06 C 185.05 146.03 186.05 148.44 184.23 148.79 C 183.26 148.52 183.02 147.94 183.52 147.06 Z" fill="#fdfbfb" />
<path d="M 344.31 147.07 L 345.02 146.65 L 345.74 147.06 L 345.74 147.89 L 345.03 148.31 L 344.31 147.90 L 344.31 147.07 Z" fill="#fdfbfb" />
<path d="M 357.14 147.33 C 358.71 146.39 359.61 148.84 357.78 149.11 C 356.82 148.78 356.61 148.19 357.14 147.33 Z" fill="#4faa42" />
<path d="M 201.05 148.48 C 202.59 147.47 203.55 149.84 201.76 150.21 C 200.77 149.94 200.54 149.36 201.05 148.48 Z" fill="#fdfbfb" />
<path d="M 456.09 148.31 C 457.04 147.96 458.89 148.59 458.22 149.85 C 457.08 151.16 453.94 149.62 456.09 148.31 Z" fill="#fdfbfb" />
<path d="M 511.03 149.28 L 511.85 149.29 L 512.25 150.01 L 511.83 150.72 L 511.00 150.71 L 510.60 149.99 L 511.03 149.28 Z" fill="#fdfbfb" />
<path d="M 349.32 150.37 C 350.41 149.21 352.34 150.48 351.57 151.92 C 350.45 153.04 348.54 151.86 349.32 150.37 Z" fill="#fdfbfb" />
<path d="M 433.41 150.05 L 434.12 149.62 L 434.84 150.03 L 434.84 150.86 L 434.14 151.28 L 433.42 150.87 L 433.41 150.05 Z" fill="#fdfbfb" />
<path d="M 363.52 151.07 C 364.71 149.90 366.42 151.28 365.62 152.71 C 364.45 153.92 362.71 152.48 363.52 151.07 Z" fill="#fdfbfb" />
<path d="M 356.24 152.06 C 358.09 152.35 357.09 154.77 355.55 153.82 C 355.04 152.97 355.27 152.38 356.24 152.06 Z" fill="#fdfbfb" />
<path d="M 453.10 153.14 C 454.89 151.95 456.03 154.72 453.93 155.15 C 452.80 154.84 452.52 154.17 453.10 153.14 Z" fill="#4faa42" />
<path d="M 504.19 153.26 C 504.69 153.77 504.69 153.77 504.19 153.26 Z" fill="#fdfbfb" />
<path d="M 445.64 154.23 C 446.58 153.32 448.40 153.80 448.62 155.13 C 448.34 157.15 444.60 156.10 445.64 154.23 Z" fill="#fdfbfb" />
<path d="M 348.27 156.12 L 349.00 155.73 L 349.70 156.16 L 349.68 156.99 L 348.95 157.38 L 348.25 156.95 L 348.27 156.12 Z" fill="#4faa42" />
<path d="M 207.30 157.20 L 208.02 156.80 L 208.73 157.22 L 208.72 158.04 L 208.00 158.45 L 207.29 158.03 L 207.30 157.20 Z" fill="#4faa42" />
<path d="M 443.07 157.17 L 443.89 157.17 L 444.31 157.89 L 443.89 158.60 L 443.07 158.60 L 442.66 157.89 L 443.07 157.17 Z" fill="#fdfbfb" />
<path d="M 460.29 157.22 C 460.80 157.73 460.80 157.73 460.29 157.22 Z" fill="#fdfbfb" />
<path d="M 202.24 158.07 L 202.96 157.67 L 203.68 158.08 L 203.67 158.90 L 202.95 159.31 L 202.24 158.90 L 202.24 158.07 Z" fill="#fdfbfb" />
<path d="M 231.29 157.96 L 232.01 157.55 L 232.72 157.97 L 232.72 158.80 L 232.00 159.20 L 231.28 158.78 L 231.29 157.96 Z" fill="#4faa42" />
<path d="M 375.95 158.30 L 376.78 158.30 L 377.19 159.02 L 376.78 159.73 L 375.95 159.73 L 375.54 159.01 L 375.95 158.30 Z" fill="#4faa42" />
<path d="M 365.21 159.91 C 366.98 159.07 368.79 160.96 366.84 162.22 C 365.04 163.03 363.25 161.24 365.21 159.91 Z" fill="#fdfbfb" />
<path d="M 142.72 162.27 C 146.12 164.69 148.63 168.48 151.53 171.48 C 160.53 181.16 169.56 190.80 178.26 200.75 C 180.86 203.66 182.60 207.06 184.84 210.20 C 187.13 213.41 190.20 215.40 192.93 218.12 C 194.74 219.88 195.30 222.00 196.13 224.29 C 197.80 225.34 199.80 226.41 201.07 227.95 C 201.80 229.58 201.58 231.68 201.69 233.44 C 203.02 233.48 205.17 232.78 206.16 233.89 C 209.27 236.74 211.94 240.07 214.95 243.04 C 217.34 245.71 220.19 247.94 219.36 251.96 C 218.32 257.21 213.15 261.79 209.73 265.71 C 207.81 267.46 205.62 270.78 202.63 269.33 C 191.92 264.66 181.57 258.98 170.93 254.13 C 163.36 251.31 157.05 246.35 149.48 243.61 C 145.68 242.27 142.31 240.10 138.63 238.54 C 128.24 234.78 118.58 229.08 108.50 224.55 C 105.38 222.94 100.65 221.27 99.02 217.96 C 100.37 212.65 104.12 207.79 107.79 203.82 C 109.95 201.39 113.29 200.78 116.33 201.70 C 121.96 203.43 126.45 206.74 131.65 209.32 C 138.02 212.50 143.94 216.45 150.28 219.68 C 153.32 221.20 155.71 223.49 158.46 225.40 C 160.71 225.87 163.78 224.77 165.76 223.67 C 168.01 221.86 167.76 217.43 168.13 214.82 C 166.57 215.72 165.03 216.66 163.50 217.62 C 159.89 213.18 156.21 208.87 151.70 205.29 C 146.40 201.22 142.18 196.20 137.54 191.45 C 134.11 187.93 128.26 183.41 128.17 178.10 C 128.80 175.16 131.36 172.51 132.92 169.96 C 135.47 166.36 137.76 162.40 142.72 162.27 Z" fill="#040000" />
<path d="M 208.06 162.40 L 208.89 162.41 L 209.29 163.13 L 208.87 163.84 L 208.04 163.83 L 207.64 163.11 L 208.06 162.40 Z" fill="#fdfbfb" />
<path d="M 212.29 162.21 C 212.81 162.73 212.81 162.73 212.29 162.21 Z" fill="#fdfbfb" />
<path d="M 217.38 163.41 C 217.12 164.75 216.78 166.07 216.36 167.35 C 215.46 167.75 214.54 168.12 213.61 168.45 C 214.48 166.14 215.21 164.74 217.38 163.41 Z" fill="#fdfbfb" />
<path d="M 498.41 164.17 C 499.85 163.01 501.86 165.27 500.76 166.63 C 499.27 167.71 497.34 165.60 498.41 164.17 Z" fill="#fdfbfb" />
<path d="M 603.02 165.35 L 603.84 165.37 L 604.24 166.09 L 603.81 166.80 L 602.98 166.78 L 602.59 166.06 L 603.02 165.35 Z" fill="#fdfbfb" />
<path d="M 206.97 166.18 L 207.79 166.17 L 208.21 166.88 L 207.81 167.61 L 206.99 167.62 L 206.57 166.91 L 206.97 166.18 Z" fill="#4faa42" />
<path d="M 507.30 166.21 C 507.81 166.73 507.81 166.73 507.30 166.21 Z" fill="#fdfbfb" />
<path d="M 231.30 169.08 L 232.02 168.68 L 232.74 169.10 L 232.73 169.92 L 232.00 170.32 L 231.29 169.90 L 231.30 169.08 Z" fill="#4faa42" />
<path d="M 584.65 169.02 C 585.75 167.75 588.49 168.99 587.62 170.70 C 586.50 171.98 583.83 170.72 584.65 169.02 Z" fill="#fdfbfb" />
<path d="M 227.04 172.34 L 227.86 172.33 L 228.28 173.04 L 227.88 173.76 L 227.06 173.77 L 226.64 173.06 L 227.04 172.34 Z" fill="#4faa42" />
<path d="M 217.35 172.93 C 216.17 175.42 214.13 174.60 211.87 174.84 C 213.66 174.06 215.47 173.44 217.35 172.93 Z" fill="#fdfbfb" />
<path d="M 574.02 173.34 C 575.23 173.12 577.12 174.55 576.27 175.83 C 574.78 177.18 571.71 174.35 574.02 173.34 Z" fill="#fdfbfb" />
<path d="M 589.10 174.07 C 590.64 173.04 591.62 175.43 589.81 175.79 C 588.83 175.53 588.59 174.95 589.10 174.07 Z" fill="#fdfbfb" />
<path d="M 508.31 176.42 C 509.47 175.29 511.28 176.57 510.45 178.02 C 509.29 179.18 507.46 177.88 508.31 176.42 Z" fill="#fdfbfb" />
<path d="M 215.02 178.30 L 215.85 178.32 L 216.24 179.05 L 215.80 179.76 L 214.98 179.73 L 214.59 179.00 L 215.02 178.30 Z" fill="#4faa42" />
<path d="M 383.49 183.64 C 430.66 179.86 478.63 191.89 518.34 217.66 C 548.58 237.17 573.86 264.26 591.19 295.81 C 608.21 326.69 617.52 361.74 617.97 397.00 C 618.60 430.90 611.12 464.81 596.31 495.30 C 582.95 522.88 563.68 547.53 540.18 567.20 C 511.97 591.02 477.61 607.27 441.35 614.20 C 408.30 620.40 373.61 619.09 341.25 609.82 C 310.23 601.09 281.20 585.29 257.04 563.94 C 230.26 540.52 209.39 510.43 196.88 477.12 C 184.97 445.63 180.69 411.48 184.13 378.01 C 187.47 345.14 198.53 313.07 216.11 285.11 C 235.08 254.83 261.58 229.33 292.61 211.61 C 320.34 195.71 351.61 186.07 383.49 183.64 Z" fill="#040000" />
<path d="M 518.24 183.20 C 520.02 182.00 521.17 184.79 519.07 185.20 C 517.93 184.89 517.66 184.22 518.24 183.20 Z" fill="#4faa42" />
<path d="M 151.22 185.40 C 152.80 185.69 152.36 187.62 150.92 187.70 C 149.35 187.41 149.80 185.49 151.22 185.40 Z" fill="#fdfbfb" />
<path d="M 222.24 185.25 C 223.34 184.11 225.35 185.04 224.42 186.62 C 223.32 187.81 221.34 186.83 222.24 185.25 Z" fill="#fdfbfb" />
<path d="M 586.23 187.21 C 588.05 187.56 587.04 189.96 585.51 188.93 C 585.02 188.05 585.26 187.48 586.23 187.21 Z" fill="#fdfbfb" />
<path d="M 156.09 189.44 L 156.91 189.44 L 157.32 190.15 L 156.91 190.87 L 156.08 190.86 L 155.67 190.15 L 156.09 189.44 Z" fill="#fdfbfb" />
<path d="M 575.23 189.22 C 577.05 189.58 576.04 191.98 574.51 190.95 C 574.02 190.07 574.26 189.49 575.23 189.22 Z" fill="#fdfbfb" />
<path d="M 567.05 191.22 L 567.87 191.21 L 568.29 191.92 L 567.89 192.64 L 567.07 192.65 L 566.64 191.94 L 567.05 191.22 Z" fill="#4faa42" />
<path d="M 257.19 192.17 C 259.00 192.53 258.00 194.93 256.47 193.90 C 255.97 193.02 256.21 192.44 257.19 192.17 Z" fill="#fdfbfb" />
<path d="M 224.02 193.82 C 224.07 194.81 224.11 195.80 224.14 196.79 C 222.98 197.25 221.80 197.66 220.60 198.02 C 221.58 196.41 222.63 195.08 224.02 193.82 Z" fill="#fdfbfb" />
<path d="M 233.48 194.12 C 234.51 192.66 236.46 194.37 234.85 195.40 C 233.81 195.53 233.35 195.10 233.48 194.12 Z" fill="#fdfbfb" />
<path d="M 250.23 195.08 C 251.96 194.75 252.66 196.72 250.98 197.41 C 249.24 197.75 248.54 195.77 250.23 195.08 Z" fill="#fdfbfb" />
<path d="M 157.39 197.18 C 158.53 195.89 160.30 197.10 159.46 198.63 C 158.31 199.92 156.55 198.71 157.39 197.18 Z" fill="#fdfbfb" />
<path d="M 230.28 197.23 C 230.79 197.74 230.79 197.74 230.28 197.23 Z" fill="#fdfbfb" />
<path d="M 153.30 200.20 C 155.09 198.97 156.19 201.77 154.10 202.20 C 152.97 201.89 152.71 201.22 153.30 200.20 Z" fill="#fdfbfb" />
<path d="M 383.41 200.45 C 393.84 199.79 404.44 199.84 414.89 200.33 C 446.56 202.67 477.63 212.68 504.68 229.32 C 529.44 244.47 550.75 265.02 566.78 289.21 C 585.73 317.66 597.16 351.02 599.67 385.11 C 600.16 395.26 600.18 405.61 599.61 415.75 C 596.74 452.43 583.56 488.15 561.86 517.86 C 543.06 543.80 517.91 564.96 489.25 579.25 C 462.03 592.71 431.42 600.35 401.00 600.02 C 360.18 600.76 319.08 587.66 285.64 564.35 C 262.78 548.50 243.38 527.84 228.94 504.06 C 212.53 477.17 202.65 446.30 200.33 414.89 C 199.84 405.05 199.84 394.95 200.33 385.11 C 202.74 352.47 213.31 320.48 230.86 292.85 C 247.26 266.88 269.68 244.87 295.94 228.94 C 322.37 212.81 352.56 203.03 383.41 200.45 Z" fill="#4faa42" />
<path d="M 559.06 200.56 C 560.59 199.77 561.81 202.33 560.71 203.36 C 559.16 204.12 557.91 201.62 559.06 200.56 Z" fill="#fdfbfb" />
<path d="M 251.12 201.08 C 252.93 201.44 251.92 203.83 250.39 202.81 C 249.90 201.93 250.14 201.35 251.12 201.08 Z" fill="#4faa42" />
<path d="M 164.27 202.07 C 166.05 200.86 167.20 203.64 165.09 204.06 C 163.96 203.75 163.69 203.09 164.27 202.07 Z" fill="#fdfbfb" />
<path d="M 566.46 204.17 C 568.02 203.20 568.94 205.64 567.12 205.93 C 566.15 205.62 565.93 205.03 566.46 204.17 Z" fill="#4faa42" />
<path d="M 167.22 207.27 L 168.05 207.28 L 168.45 208.00 L 168.03 208.71 L 167.20 208.70 L 166.80 207.98 L 167.22 207.27 Z" fill="#4faa42" />
<path d="M 173.50 208.06 C 175.03 207.03 176.04 209.43 174.22 209.78 C 173.24 209.51 173.01 208.94 173.50 208.06 Z" fill="#fdfbfb" />
<path d="M 242.35 208.03 L 243.07 207.63 L 243.78 208.05 L 243.78 208.87 L 243.06 209.28 L 242.35 208.86 L 242.35 208.03 Z" fill="#fdfbfb" />
<path d="M 242.41 211.10 L 243.13 210.69 L 243.84 211.11 L 243.83 211.94 L 243.11 212.35 L 242.40 211.92 L 242.41 211.10 Z" fill="#fdfbfb" />
<path d="M 233.13 213.28 C 234.91 212.10 236.05 214.84 233.95 215.27 C 232.80 214.96 232.53 214.29 233.13 213.28 Z" fill="#fdfbfb" />
<path d="M 252.18 213.09 L 252.90 212.68 L 253.61 213.09 L 253.61 213.91 L 252.89 214.32 L 252.17 213.91 L 252.18 213.09 Z" fill="#4faa42" />
<path d="M 172.18 213.99 L 172.90 213.59 L 173.61 214.02 L 173.59 214.84 L 172.87 215.25 L 172.16 214.82 L 172.18 213.99 Z" fill="#fdfbfb" />
<path d="M 564.62 215.09 C 565.80 213.95 567.58 215.32 566.75 216.75 C 565.58 217.89 563.79 216.49 564.62 215.09 Z" fill="#fdfbfb" />
<path d="M 139.17 219.04 L 139.88 218.64 L 140.59 219.06 L 140.58 219.89 L 139.87 220.29 L 139.16 219.87 L 139.17 219.04 Z" fill="#fdfbfb" />
<path d="M 129.02 220.26 L 129.84 220.24 L 130.27 220.95 L 129.87 221.68 L 129.04 221.69 L 128.62 220.98 L 129.02 220.26 Z" fill="#4faa42" />
<path d="M 174.23 221.56 C 174.46 223.47 174.41 225.26 174.14 227.17 C 172.96 226.48 171.79 225.78 170.63 225.07 C 171.81 223.87 172.99 222.69 174.23 221.56 Z" fill="#fdfbfb" />
<path d="M 189.30 222.15 L 190.03 221.75 L 190.74 222.18 L 190.72 223.00 L 189.99 223.40 L 189.29 222.97 L 189.30 222.15 Z" fill="#4faa42" />
<path d="M 573.07 224.32 L 573.89 224.32 L 574.30 225.03 L 573.89 225.75 L 573.07 225.75 L 572.66 225.03 L 573.07 224.32 Z" fill="#4faa42" />
<path d="M 151.51 225.07 C 153.04 224.04 154.04 226.44 152.22 226.79 C 151.25 226.53 151.01 225.95 151.51 225.07 Z" fill="#fdfbfb" />
<path d="M 681.20 225.31 C 682.85 224.38 684.16 226.38 682.84 227.64 C 681.19 228.56 679.87 226.56 681.20 225.31 Z" fill="#fdfbfb" />
<path d="M 688.11 227.28 C 689.65 226.37 690.63 228.80 688.79 229.05 C 687.81 228.72 687.59 228.13 688.11 227.28 Z" fill="#fdfbfb" />
<path d="M 166.14 228.04 C 167.96 226.83 169.05 229.58 166.94 230.02 C 165.81 229.73 165.54 229.06 166.14 228.04 Z" fill="#fdfbfb" />
<path d="M 173.44 228.14 C 174.98 227.13 175.96 229.54 174.14 229.88 C 173.17 229.59 172.93 229.01 173.44 228.14 Z" fill="#4faa42" />
<path d="M 183.39 228.19 C 185.17 226.99 186.33 229.79 184.23 230.20 C 183.10 229.88 182.82 229.20 183.39 228.19 Z" fill="#fdfbfb" />
<path d="M 193.22 228.19 C 195.04 228.55 194.04 230.95 192.51 229.92 C 192.01 229.04 192.25 228.46 193.22 228.19 Z" fill="#fdfbfb" />
<path d="M 156.36 228.92 C 158.40 228.41 158.51 230.98 156.93 231.65 C 154.96 232.09 154.83 229.60 156.36 228.92 Z" fill="#fdfbfb" />
<path d="M 652.15 229.15 L 652.98 229.16 L 653.38 229.88 L 652.95 230.59 L 652.13 230.57 L 651.73 229.86 L 652.15 229.15 Z" fill="#fdfbfb" />
<path d="M 674.24 229.66 C 675.78 228.61 677.47 231.10 676.33 232.36 C 674.82 233.41 673.07 230.89 674.24 229.66 Z" fill="#fdfbfb" />
<path d="M 180.08 230.19 C 181.87 229.03 183.07 231.75 180.92 232.17 C 179.76 231.86 179.48 231.20 180.08 230.19 Z" fill="#fdfbfb" />
<path d="M 669.09 230.34 L 669.92 230.34 L 670.34 231.05 L 669.93 231.77 L 669.10 231.77 L 668.68 231.06 L 669.09 230.34 Z" fill="#fdfbfb" />
<path d="M 681.04 231.20 C 682.34 233.16 683.34 235.26 684.17 237.47 C 681.98 236.04 680.41 234.28 678.93 232.16 C 679.63 231.83 680.34 231.51 681.04 231.20 Z" fill="#fdfbfb" />
<path d="M 689.12 233.11 C 690.92 231.92 692.04 234.69 689.94 235.11 C 688.81 234.80 688.54 234.13 689.12 233.11 Z" fill="#4faa42" />
<path d="M 154.19 234.22 L 155.01 234.25 L 155.40 234.98 L 154.97 235.68 L 154.14 235.65 L 153.76 234.92 L 154.19 234.22 Z" fill="#4faa42" />
<path d="M 165.06 235.25 L 165.89 235.26 L 166.30 235.98 L 165.88 236.69 L 165.05 236.69 L 164.64 235.97 L 165.06 235.25 Z" fill="#fdfbfb" />
<path d="M 172.26 234.97 C 171.14 238.70 170.54 239.66 166.96 241.28 C 168.08 237.50 168.63 236.60 172.26 234.97 Z" fill="#fdfbfb" />
<path d="M 160.50 235.85 C 160.57 236.77 160.64 237.68 160.71 238.60 C 159.76 238.52 158.82 238.45 157.87 238.37 C 158.74 237.53 159.62 236.69 160.50 235.85 Z" fill="#fdfbfb" />
<path d="M 175.30 236.20 C 176.57 234.82 178.49 236.24 177.60 237.86 C 176.32 239.23 174.39 237.84 175.30 236.20 Z" fill="#fdfbfb" />
<path d="M 183.23 236.08 C 185.01 234.84 186.14 237.64 184.06 238.08 C 182.93 237.78 182.65 237.11 183.23 236.08 Z" fill="#fdfbfb" />
<path d="M 188.12 236.15 L 188.94 236.16 L 189.35 236.88 L 188.93 237.58 L 188.11 237.58 L 187.70 236.87 L 188.12 236.15 Z" fill="#fdfbfb" />
<path d="M 664.12 236.08 C 665.93 234.88 667.02 237.62 664.92 238.07 C 663.79 237.77 663.52 237.11 664.12 236.08 Z" fill="#fdfbfb" />
<path d="M 669.12 236.59 C 670.36 235.55 672.50 237.14 671.55 238.58 C 670.32 239.61 668.10 238.03 669.12 236.59 Z" fill="#fdfbfb" />
<path d="M 678.18 237.47 C 680.40 237.02 680.30 241.00 678.18 240.76 C 676.69 240.28 676.89 238.06 678.18 237.47 Z" fill="#fdfbfb" />
<path d="M 183.93 240.46 C 184.97 240.30 186.02 240.15 187.06 240.00 C 186.59 241.36 186.10 242.73 185.62 244.09 C 185.05 242.88 184.48 241.67 183.93 240.46 Z" fill="#fdfbfb" />
<path d="M 382.25 242.86 C 386.01 248.90 387.61 256.03 391.05 262.31 C 394.61 260.51 398.17 258.72 401.79 257.05 C 404.86 258.43 408.31 261.92 411.75 259.79 C 415.41 258.10 418.96 256.23 422.77 254.87 C 425.57 257.58 428.39 260.28 431.18 263.00 C 435.12 257.43 437.70 251.14 441.80 245.68 C 445.90 251.20 449.20 257.24 453.17 262.86 C 453.95 262.44 454.74 262.03 455.52 261.63 C 456.62 256.96 457.15 252.33 460.98 248.99 C 466.01 244.37 473.73 243.76 479.38 247.62 C 485.76 251.82 487.80 260.48 484.19 267.16 C 482.07 271.22 478.42 272.86 474.56 274.87 C 473.80 285.21 474.45 295.63 474.24 306.00 C 474.43 317.80 473.87 329.64 474.50 341.41 C 491.58 351.06 506.70 363.82 518.30 379.70 C 530.27 396.16 537.84 415.54 538.86 435.96 C 539.32 449.52 538.81 463.05 537.59 476.56 C 445.19 476.61 352.61 476.58 260.20 476.57 C 259.82 469.83 260.07 463.09 259.73 456.34 C 259.31 447.45 258.92 438.83 259.91 429.95 C 261.12 417.53 264.70 405.40 270.24 394.23 C 279.21 376.03 293.40 360.56 309.95 348.95 C 315.13 345.23 320.73 342.35 326.08 338.89 C 326.54 328.61 326.13 318.29 326.26 308.00 C 326.08 297.11 326.63 286.17 326.01 275.30 C 323.06 273.43 319.49 271.45 317.35 268.64 C 314.02 264.03 313.77 257.50 316.60 252.59 C 319.94 246.74 326.93 243.82 333.45 245.58 C 337.86 246.67 340.20 249.76 342.97 253.05 C 345.53 256.26 348.74 258.67 352.10 260.96 C 355.74 258.02 359.25 254.92 362.91 252.00 C 365.83 254.81 368.78 257.57 371.83 260.24 C 375.68 254.66 378.33 248.37 382.25 242.86 Z" fill="#fdfbfb" />
<path d="M 672.15 243.23 C 673.83 243.46 673.67 245.69 672.05 245.88 C 670.35 245.64 670.53 243.44 672.15 243.23 Z" fill="#4faa42" />
<path d="M 176.15 244.15 C 177.93 242.97 179.08 245.74 176.98 246.16 C 175.84 245.84 175.57 245.18 176.15 244.15 Z" fill="#4faa42" />
<path d="M 179.51 244.24 C 181.10 242.96 183.02 244.75 181.63 246.35 C 180.10 247.59 178.21 245.78 179.51 244.24 Z" fill="#fdfbfb" />
<path d="M 679.24 244.26 C 679.75 244.77 679.75 244.77 679.24 244.26 Z" fill="#fdfbfb" />
<path d="M 644.44 245.23 C 645.62 244.05 647.38 245.44 646.53 246.87 C 645.34 248.01 643.59 246.67 644.44 245.23 Z" fill="#fdfbfb" />
<path d="M 666.75 245.21 C 668.31 245.18 669.00 247.40 668.78 248.70 C 667.09 250.93 664.43 252.46 662.35 254.33 C 656.80 259.41 650.32 262.80 644.32 267.33 C 641.88 268.83 639.64 271.32 636.64 269.53 C 633.76 265.80 632.06 261.55 628.34 258.42 C 630.14 258.50 632.44 259.01 634.04 258.06 C 637.35 256.31 640.01 253.30 642.89 251.23 C 645.67 250.41 648.53 250.60 651.20 249.20 C 656.07 246.73 661.20 244.88 666.75 245.21 Z" fill="#fdfbfb" />
<path d="M 639.16 246.25 C 640.84 246.44 640.71 248.68 639.10 248.89 C 637.38 248.67 637.54 246.49 639.16 246.25 Z" fill="#fdfbfb" />
<path d="M 85.32 247.18 C 89.72 246.59 93.64 249.62 97.18 251.80 C 105.84 257.42 115.03 259.03 124.25 263.74 C 130.13 266.62 135.23 270.32 141.25 272.69 C 148.42 275.55 155.63 278.30 162.77 281.21 C 169.51 283.89 175.96 287.05 182.93 289.13 C 185.70 290.11 189.66 291.28 190.70 294.39 C 191.65 297.40 190.12 301.07 188.76 303.74 C 186.18 308.58 183.29 313.30 180.12 317.77 C 175.46 315.84 170.56 314.26 166.17 311.86 C 161.42 309.32 156.79 306.58 152.14 303.85 C 147.64 301.16 142.22 299.75 137.27 297.75 C 118.03 290.20 99.08 281.92 79.98 274.03 C 76.79 272.76 74.44 270.77 74.59 267.04 C 75.32 263.19 77.33 259.51 78.97 255.97 C 80.55 252.95 82.39 249.09 85.32 247.18 Z" fill="#040000" />
<path d="M 187.31 249.17 L 188.03 248.78 L 188.74 249.20 L 188.72 250.03 L 188.00 250.42 L 187.29 249.99 L 187.31 249.17 Z" fill="#4faa42" />
<path d="M 382.01 248.90 C 385.08 254.51 386.64 260.72 389.87 266.28 C 393.62 264.47 397.21 261.86 401.17 260.59 C 403.81 260.84 406.34 263.07 408.99 263.69 C 413.50 262.59 417.64 259.77 421.98 258.06 C 425.27 261.16 428.51 264.32 431.90 267.32 C 435.54 261.99 438.18 256.11 441.88 250.82 C 445.01 254.91 447.36 259.51 450.38 263.66 C 451.73 265.91 454.34 265.28 456.59 265.66 C 458.66 268.24 460.45 270.76 463.35 272.49 C 464.69 273.46 466.51 274.22 467.49 275.56 C 468.12 278.27 467.94 281.23 467.95 284.01 C 467.75 301.91 467.98 319.83 467.85 337.73 C 454.40 331.55 440.50 326.63 425.86 324.16 C 400.16 319.65 373.52 321.74 348.72 329.74 C 343.44 331.49 338.37 333.76 333.03 335.32 C 332.52 327.52 332.86 319.81 332.79 312.00 C 332.94 299.77 332.48 287.50 332.99 275.28 C 335.79 273.54 339.11 271.79 341.27 269.26 C 343.39 266.55 344.14 262.57 345.11 259.31 C 347.46 261.00 349.83 262.67 352.20 264.35 C 355.83 261.60 359.25 258.60 362.84 255.79 C 366.03 258.78 369.14 261.84 372.27 264.89 C 375.92 259.77 378.30 253.96 382.01 248.90 Z" fill="#4faa42" />
<path d="M 631.98 249.28 L 632.81 249.27 L 633.23 249.98 L 632.84 250.70 L 632.02 250.72 L 631.59 250.01 L 631.98 249.28 Z" fill="#4faa42" />
<path d="M 611.26 250.07 C 613.04 248.86 614.19 251.63 612.08 252.06 C 610.95 251.75 610.67 251.08 611.26 250.07 Z" fill="#fdfbfb" />
<path d="M 679.04 250.49 C 680.59 249.49 681.55 251.85 679.75 252.22 C 678.76 251.94 678.52 251.36 679.04 250.49 Z" fill="#fdfbfb" />
<path d="M 201.20 252.24 C 201.71 252.75 201.71 252.75 201.20 252.24 Z" fill="#fdfbfb" />
<path d="M 206.38 252.15 C 207.90 251.11 208.93 253.49 207.12 253.87 C 206.14 253.61 205.89 253.04 206.38 252.15 Z" fill="#4faa42" />
<path d="M 625.16 252.23 C 626.69 251.19 627.68 253.56 625.88 253.96 C 624.90 253.70 624.66 253.13 625.16 252.23 Z" fill="#4faa42" />
<path d="M 193.33 253.23 C 193.84 253.75 193.84 253.75 193.33 253.23 Z" fill="#fdfbfb" />
<path d="M 631.00 252.34 C 632.34 253.17 633.69 253.99 635.05 254.80 C 634.06 255.31 633.07 255.83 632.09 256.35 C 631.73 255.01 631.37 253.67 631.00 252.34 Z" fill="#fdfbfb" />
<path d="M 610.18 257.60 C 611.94 257.22 611.99 259.88 610.20 259.52 C 609.42 258.89 609.42 258.25 610.18 257.60 Z" fill="#fdfbfb" />
<path d="M 668.19 257.20 C 670.01 257.56 669.00 259.95 667.48 258.92 C 666.98 258.04 667.22 257.47 668.19 257.20 Z" fill="#fdfbfb" />
<path d="M 618.30 259.06 L 619.01 258.64 L 619.74 259.04 L 619.75 259.86 L 619.04 260.29 L 618.32 259.89 L 618.30 259.06 Z" fill="#4faa42" />
<path d="M 656.04 261.57 C 657.45 260.77 658.91 262.48 657.71 263.66 C 656.30 264.46 654.85 262.76 656.04 261.57 Z" fill="#fdfbfb" />
<path d="M 619.11 262.52 C 620.58 261.71 621.75 263.68 620.62 264.77 C 619.10 265.57 617.98 263.65 619.11 262.52 Z" fill="#fdfbfb" />
<path d="M 623.72 263.59 C 627.08 265.89 624.65 270.94 624.34 274.20 C 623.75 270.70 623.55 267.13 623.72 263.59 Z" fill="#fdfbfb" />
<path d="M 653.07 264.55 C 654.42 263.75 655.39 265.48 654.41 266.49 C 653.06 267.31 652.07 265.57 653.07 264.55 Z" fill="#fdfbfb" />
<path d="M 612.07 266.55 C 613.48 265.74 614.91 267.48 613.72 268.65 C 612.29 269.46 610.91 267.74 612.07 266.55 Z" fill="#fdfbfb" />
<path d="M 649.13 269.20 C 650.91 268.01 652.05 270.79 649.95 271.21 C 648.82 270.89 648.54 270.23 649.13 269.20 Z" fill="#4faa42" />
<path d="M 117.08 272.51 C 118.83 272.13 118.85 274.84 117.08 274.46 C 116.32 273.81 116.31 273.16 117.08 272.51 Z" fill="#fdfbfb" />
<path d="M 643.05 272.52 C 645.08 274.62 645.31 276.63 645.49 279.42 C 643.69 277.10 643.22 275.48 643.05 272.52 Z" fill="#fdfbfb" />
<path d="M 630.25 274.74 C 632.89 277.27 634.41 278.69 633.57 282.64 C 632.26 280.09 631.12 277.47 630.25 274.74 Z" fill="#fdfbfb" />
<path d="M 638.15 275.79 C 639.55 275.62 639.55 279.55 638.77 280.24 C 637.36 280.36 637.29 276.49 638.15 275.79 Z" fill="#fdfbfb" />
<path d="M 655.18 278.19 C 657.00 278.55 656.00 280.94 654.47 279.91 C 653.97 279.02 654.20 278.45 655.18 278.19 Z" fill="#fdfbfb" />
<path d="M 126.19 280.79 C 128.13 279.89 128.49 284.28 126.70 284.50 C 125.23 284.22 125.26 281.64 126.19 280.79 Z" fill="#fdfbfb" />
<path d="M 157.23 287.28 C 159.48 288.13 157.09 290.92 155.50 289.62 C 154.65 288.42 155.96 287.13 157.23 287.28 Z" fill="#fdfbfb" />
<path d="M 629.13 289.08 C 630.63 288.81 631.21 290.66 629.82 291.28 C 628.31 291.56 627.74 289.71 629.13 289.08 Z" fill="#fdfbfb" />
<path d="M 169.15 290.10 C 170.94 288.92 172.08 291.69 169.98 292.11 C 168.85 291.79 168.57 291.12 169.15 290.10 Z" fill="#4faa42" />
<path d="M 141.12 294.09 C 142.93 294.43 141.95 296.84 140.41 295.82 C 139.91 294.95 140.14 294.37 141.12 294.09 Z" fill="#4faa42" />
<path d="M 739.44 300.56 C 742.64 307.65 741.83 316.48 743.96 324.11 C 746.36 332.82 749.00 341.99 747.03 351.09 C 745.61 356.88 741.33 360.64 736.13 363.13 C 725.80 367.89 716.11 372.25 704.42 370.40 C 699.52 370.00 696.55 366.61 692.13 365.32 C 688.37 366.70 685.46 370.87 682.35 373.35 C 680.25 375.12 677.87 375.74 675.33 376.63 C 671.84 377.79 668.65 379.33 665.02 380.08 C 660.10 381.12 655.37 381.46 650.81 383.81 C 647.26 385.33 642.46 388.54 638.51 387.53 C 634.90 386.49 635.29 381.95 634.70 379.02 C 634.42 375.03 632.38 371.23 632.45 367.28 C 632.67 363.97 635.22 362.31 637.84 360.83 C 646.74 356.24 655.67 356.25 664.94 353.88 C 670.28 352.50 675.16 349.19 676.34 343.49 C 676.54 340.17 675.32 336.73 674.90 333.43 C 673.02 335.03 671.68 336.76 668.98 336.83 C 656.23 337.39 643.68 343.72 630.87 344.76 C 628.75 344.91 627.21 343.36 626.43 341.53 C 625.38 338.57 625.59 335.10 625.09 332.00 C 624.72 328.65 622.95 325.45 622.87 322.12 C 624.01 317.39 629.18 317.24 632.95 315.69 C 639.04 313.26 645.24 312.80 651.63 311.69 C 662.02 309.95 672.42 308.24 682.82 306.55 C 689.87 305.37 696.80 304.50 703.65 302.39 C 704.85 303.26 706.05 304.12 707.27 304.96 C 707.33 303.70 707.40 302.44 707.46 301.18 C 715.86 299.29 724.26 297.31 732.70 295.61 C 736.13 294.62 738.09 298.01 739.44 300.56 Z" fill="#040000" />
<path d="M 65.09 298.92 C 69.48 298.69 74.09 299.65 78.39 300.53 C 82.08 301.20 85.60 304.69 84.64 308.66 C 83.25 315.31 81.06 321.79 79.44 328.38 C 78.44 332.26 79.90 336.52 82.62 339.36 C 85.19 341.18 89.03 341.47 92.10 341.68 C 95.84 341.87 101.30 340.89 103.41 337.42 C 105.04 332.30 104.03 326.06 106.00 320.96 C 107.13 318.19 109.69 315.60 112.93 316.04 C 117.06 316.49 121.14 317.73 125.15 318.82 C 127.01 319.43 129.36 320.03 129.76 322.28 C 130.70 328.59 126.21 335.75 126.14 341.98 C 126.11 344.89 127.67 348.13 130.62 349.03 C 136.28 350.90 142.01 352.40 147.96 352.93 C 154.61 353.85 162.78 353.96 168.74 357.22 C 170.73 358.22 171.13 359.86 171.10 361.95 C 170.82 367.22 169.28 372.50 167.50 377.45 C 166.60 379.50 165.73 382.56 162.98 382.53 C 159.82 382.51 156.49 380.63 153.64 379.36 C 148.78 376.94 142.66 376.56 137.31 375.52 C 126.40 373.51 115.43 371.78 104.55 369.61 C 104.16 368.10 103.77 366.60 103.36 365.09 C 103.05 366.40 102.75 367.72 102.45 369.03 C 92.01 367.86 81.70 365.47 71.31 363.80 C 65.98 362.72 60.50 362.17 55.24 360.80 C 53.13 360.22 50.91 358.51 51.13 356.10 C 51.34 350.50 52.94 344.75 54.15 339.28 C 55.72 332.23 57.54 325.24 59.10 318.20 C 60.22 313.28 60.21 308.20 61.31 303.30 C 61.86 301.37 62.78 299.11 65.09 298.92 Z" fill="#040000" />
<path d="M 689.13 310.26 C 690.89 309.10 692.05 311.89 689.96 312.29 C 688.83 311.95 688.55 311.28 689.13 310.26 Z" fill="#fdfbfb" />
<path d="M 712.06 311.18 L 712.88 311.18 L 713.30 311.89 L 712.90 312.61 L 712.07 312.61 L 711.65 311.90 L 712.06 311.18 Z" fill="#fdfbfb" />
<path d="M 679.07 314.91 C 680.59 316.96 680.48 317.95 680.00 320.38 C 678.57 318.16 678.22 317.49 679.07 314.91 Z" fill="#fdfbfb" />
<path d="M 684.04 316.16 L 684.86 316.16 L 685.27 316.88 L 684.86 317.60 L 684.04 317.60 L 683.63 316.88 L 684.04 316.16 Z" fill="#fdfbfb" />
<path d="M 665.06 316.95 C 665.33 318.68 665.53 320.41 665.71 322.15 C 664.77 320.92 663.85 319.66 662.95 318.40 C 663.65 317.91 664.36 317.43 665.06 316.95 Z" fill="#fdfbfb" />
<path d="M 696.62 318.10 C 698.18 317.13 699.10 319.60 697.27 319.87 C 696.31 319.55 696.09 318.96 696.62 318.10 Z" fill="#fdfbfb" />
<path d="M 707.12 318.52 C 708.62 317.50 709.69 319.89 707.88 320.25 C 706.89 319.98 706.64 319.40 707.12 318.52 Z" fill="#fdfbfb" />
<path d="M 730.78 318.09 C 731.47 318.54 732.14 319.01 732.80 319.49 C 732.83 320.74 732.82 321.99 732.78 323.24 C 732.04 321.55 731.37 319.84 730.78 318.09 Z" fill="#fdfbfb" />
<path d="M 647.14 320.15 C 648.93 318.97 650.07 321.74 647.97 322.16 C 646.84 321.85 646.56 321.18 647.14 320.15 Z" fill="#4faa42" />
<path d="M 703.15 319.74 C 704.59 321.11 705.33 322.46 705.99 324.34 C 704.44 322.88 703.74 321.78 703.15 319.74 Z" fill="#fdfbfb" />
<path d="M 672.12 322.44 C 674.27 322.69 672.98 326.25 671.15 325.34 C 670.16 324.40 670.80 322.65 672.12 322.44 Z" fill="#fdfbfb" />
<path d="M 655.32 323.04 L 656.03 322.61 L 656.75 323.02 L 656.75 323.85 L 656.04 324.27 L 655.33 323.86 L 655.32 323.04 Z" fill="#fdfbfb" />
<path d="M 713.05 323.40 L 713.88 323.41 L 714.29 324.13 L 713.86 324.84 L 713.04 324.83 L 712.63 324.11 L 713.05 323.40 Z" fill="#fdfbfb" />
<path d="M 686.40 325.17 C 687.93 324.16 688.94 326.56 687.13 326.91 C 686.15 326.63 685.91 326.05 686.40 325.17 Z" fill="#4faa42" />
<path d="M 720.36 325.65 C 725.95 328.29 727.10 336.37 722.58 340.59 C 718.99 343.97 712.55 344.45 707.99 345.92 C 705.88 346.42 704.54 348.36 703.00 349.78 C 703.22 348.13 703.43 346.48 703.62 344.82 C 702.25 345.36 700.89 345.93 699.53 346.51 C 698.69 342.83 697.10 339.43 696.00 335.83 C 695.14 333.44 697.49 331.37 699.41 330.42 C 703.87 328.44 709.04 328.06 713.72 326.64 C 715.75 326.23 718.33 325.10 720.36 325.65 Z" fill="#fdfbfb" />
<path d="M 694.12 327.26 C 695.64 326.93 696.35 328.66 694.85 329.32 C 693.31 329.65 692.61 327.92 694.12 327.26 Z" fill="#fdfbfb" />
<path d="M 661.12 328.09 C 662.83 326.95 664.14 329.74 662.02 330.11 C 660.87 329.77 660.57 329.10 661.12 328.09 Z" fill="#fdfbfb" />
<path d="M 666.45 329.19 C 667.87 328.01 670.01 329.91 668.90 331.43 C 667.50 332.54 665.33 330.70 666.45 329.19 Z" fill="#fdfbfb" />
<path d="M 680.04 329.47 C 682.56 331.71 684.84 334.20 686.69 337.03 C 683.21 335.47 681.49 332.87 680.04 329.47 Z" fill="#fdfbfb" />
<path d="M 685.14 330.30 L 685.97 330.31 L 686.37 331.03 L 685.95 331.75 L 685.13 331.74 L 684.72 331.02 L 685.14 330.30 Z" fill="#4faa42" />
<path d="M 729.12 330.12 C 730.91 328.94 732.05 331.71 729.95 332.13 C 728.81 331.82 728.54 331.15 729.12 330.12 Z" fill="#4faa42" />
<path d="M 692.41 330.79 C 692.55 331.84 692.70 332.88 692.84 333.93 C 691.81 333.79 690.78 333.64 689.75 333.49 C 690.63 332.59 691.52 331.69 692.41 330.79 Z" fill="#fdfbfb" />
<path d="M 110.15 332.33 C 112.26 332.55 111.01 336.21 109.20 335.31 C 108.22 334.36 108.86 332.60 110.15 332.33 Z" fill="#fdfbfb" />
<path d="M 648.22 333.29 C 649.97 332.41 651.21 335.10 649.93 336.24 C 648.29 337.05 646.91 334.39 648.22 333.29 Z" fill="#fdfbfb" />
<path d="M 668.24 334.21 C 668.76 334.73 668.76 334.73 668.24 334.21 Z" fill="#fdfbfb" />
<path d="M 74.20 336.18 C 76.02 336.54 75.01 338.94 73.49 337.90 C 72.99 337.02 73.23 336.45 74.20 336.18 Z" fill="#fdfbfb" />
<path d="M 689.67 336.57 C 691.75 339.47 693.03 342.71 694.07 346.09 C 693.13 345.93 692.19 345.77 691.25 345.62 C 690.57 342.63 690.00 339.62 689.67 336.57 Z" fill="#fdfbfb" />
<path d="M 678.80 338.11 C 680.12 340.12 681.11 342.08 681.92 344.33 C 680.66 343.35 679.01 342.37 678.18 340.97 C 678.27 340.00 678.47 339.05 678.80 338.11 Z" fill="#fdfbfb" />
<path d="M 684.28 339.27 C 685.76 339.43 685.71 341.47 684.27 341.67 C 682.79 341.49 682.86 339.50 684.28 339.27 Z" fill="#fdfbfb" />
<path d="M 75.30 341.47 C 77.43 341.94 75.10 345.77 73.51 344.76 C 72.70 343.63 74.04 341.61 75.30 341.47 Z" fill="#fdfbfb" />
<path d="M 120.11 345.36 C 121.63 344.42 122.61 346.88 120.80 347.15 C 119.84 346.82 119.60 346.22 120.11 345.36 Z" fill="#fdfbfb" />
<path d="M 81.24 346.15 C 83.06 345.85 83.70 348.27 81.97 348.92 C 80.17 349.21 79.57 346.80 81.24 346.15 Z" fill="#fdfbfb" />
<path d="M 94.88 347.65 C 95.21 349.20 95.50 350.76 95.76 352.32 C 94.86 351.61 93.95 350.91 93.08 350.15 C 93.67 349.31 94.26 348.48 94.88 347.65 Z" fill="#fdfbfb" />
<path d="M 688.84 348.05 C 689.73 348.18 690.61 348.32 691.49 348.49 C 691.67 349.67 691.83 350.85 691.96 352.04 C 690.88 350.74 689.81 349.43 688.84 348.05 Z" fill="#fdfbfb" />
<path d="M 109.12 349.26 C 111.01 348.94 111.75 351.62 109.93 352.29 C 108.00 352.59 107.29 349.96 109.12 349.26 Z" fill="#fdfbfb" />
<path d="M 123.28 348.95 L 123.99 348.53 L 124.71 348.95 L 124.71 349.77 L 123.99 350.18 L 123.28 349.77 L 123.28 348.95 Z" fill="#4faa42" />
<path d="M 84.16 350.28 C 86.02 350.00 86.11 352.23 84.50 352.70 C 82.64 352.96 82.58 350.78 84.16 350.28 Z" fill="#fdfbfb" />
<path d="M 102.18 349.98 C 103.96 348.79 105.16 351.54 103.03 351.96 C 101.89 351.66 101.60 351.00 102.18 349.98 Z" fill="#fdfbfb" />
<path d="M 707.00 350.27 L 707.82 350.25 L 708.24 350.96 L 707.85 351.69 L 707.02 351.70 L 706.60 350.99 L 707.00 350.27 Z" fill="#4faa42" />
<path d="M 715.17 350.03 C 716.07 349.80 716.65 350.11 716.92 350.98 C 717.14 352.73 714.64 354.06 713.96 352.03 C 713.94 351.12 714.34 350.46 715.17 350.03 Z" fill="#fdfbfb" />
<path d="M 681.22 351.12 C 683.01 349.93 684.15 352.71 682.05 353.13 C 680.92 352.81 680.64 352.14 681.22 351.12 Z" fill="#4faa42" />
<path d="M 692.67 352.05 C 693.67 352.52 694.67 353.02 695.65 353.56 C 695.53 354.67 695.36 355.78 695.14 356.89 C 694.16 355.35 693.29 353.77 692.67 352.05 Z" fill="#fdfbfb" />
<path d="M 87.06 353.40 L 87.88 353.41 L 88.29 354.13 L 87.86 354.83 L 87.03 354.82 L 86.63 354.10 L 87.06 353.40 Z" fill="#fdfbfb" />
<path d="M 114.10 353.15 L 114.92 353.16 L 115.33 353.87 L 114.92 354.58 L 114.09 354.58 L 113.68 353.87 L 114.10 353.15 Z" fill="#fdfbfb" />
<path d="M 679.08 353.32 C 680.67 353.53 680.31 355.47 678.89 355.63 C 677.30 355.42 677.65 353.49 679.08 353.32 Z" fill="#fdfbfb" />
<path d="M 108.25 354.26 C 110.02 353.07 111.17 355.84 109.06 356.26 C 107.93 355.94 107.66 355.27 108.25 354.26 Z" fill="#fdfbfb" />
<path d="M 669.59 354.09 C 671.15 353.11 672.08 355.58 670.25 355.86 C 669.29 355.54 669.07 354.95 669.59 354.09 Z" fill="#fdfbfb" />
<path d="M 725.17 355.19 C 726.95 354.00 728.10 356.78 726.00 357.19 C 724.86 356.88 724.58 356.21 725.17 355.19 Z" fill="#4faa42" />
<path d="M 686.13 356.20 C 687.64 355.14 688.68 357.50 686.88 357.92 C 685.90 357.67 685.64 357.10 686.13 356.20 Z" fill="#4faa42" />
<path d="M 92.13 358.49 C 94.20 357.49 95.23 361.45 92.98 361.71 C 91.53 361.46 91.14 359.46 92.13 358.49 Z" fill="#fdfbfb" />
<path d="M 117.32 358.30 C 117.83 358.82 117.83 358.82 117.32 358.30 Z" fill="#fdfbfb" />
<path d="M 679.15 358.42 C 680.67 357.41 681.69 359.80 679.87 360.15 C 678.89 359.88 678.65 359.30 679.15 358.42 Z" fill="#4faa42" />
<path d="M 122.08 360.06 C 123.60 359.04 124.60 361.44 122.80 361.79 C 121.82 361.52 121.58 360.95 122.08 360.06 Z" fill="#fdfbfb" />
<path d="M 121.99 364.17 L 122.82 364.15 L 123.25 364.85 L 122.86 365.58 L 122.03 365.59 L 121.60 364.89 L 121.99 364.17 Z" fill="#fdfbfb" />
<path d="M 136.29 364.08 C 135.23 365.47 134.13 366.80 132.97 368.11 C 133.24 367.06 133.53 366.03 133.85 364.99 C 134.66 364.68 135.48 364.37 136.29 364.08 Z" fill="#fdfbfb" />
<path d="M 148.10 365.42 C 149.47 364.69 150.44 366.41 149.36 367.39 C 147.99 368.12 147.03 366.40 148.10 365.42 Z" fill="#fdfbfb" />
<path d="M 350.46 409.54 C 360.91 407.43 374.60 414.45 375.41 425.98 C 376.02 436.43 366.36 443.54 356.84 444.64 C 347.18 446.24 337.34 438.45 335.96 428.94 C 334.72 420.14 342.17 411.48 350.46 409.54 Z" fill="#4faa42" />
<path d="M 441.48 409.59 C 452.16 407.24 466.77 414.91 466.58 427.00 C 466.67 437.04 456.96 443.67 447.84 444.66 C 437.58 446.26 427.37 437.23 427.14 427.00 C 427.25 418.97 433.83 411.52 441.48 409.59 Z" fill="#4faa42" />
<path d="M 259.77 483.79 C 265.51 483.43 271.25 483.49 277.00 483.55 C 359.00 483.55 441.00 483.55 523.00 483.55 C 528.71 483.49 534.41 483.43 540.11 483.80 C 540.54 489.83 540.56 495.76 540.04 501.79 C 535.69 501.89 531.35 501.93 527.00 501.88 C 437.97 501.79 348.82 501.97 259.81 501.80 C 259.22 495.76 259.25 489.83 259.77 483.79 Z" fill="#fdfbfb" />
<path d="M 582.80 552.04 C 587.97 557.14 590.56 563.46 592.84 570.21 C 598.28 583.65 603.81 597.06 609.62 610.34 C 611.56 614.99 613.04 620.20 615.73 624.47 C 618.06 627.07 621.02 629.04 623.23 631.80 C 631.13 641.19 639.30 650.38 647.26 659.70 C 650.55 663.30 649.07 667.90 646.20 671.18 C 642.77 674.76 638.39 677.47 634.44 680.45 C 632.00 682.13 628.58 684.34 625.67 682.46 C 623.21 679.86 621.51 676.61 619.05 673.97 C 611.26 665.07 603.53 656.11 595.88 647.10 C 592.14 642.57 586.96 640.76 582.01 636.99 C 573.20 630.40 563.25 626.87 553.93 621.08 C 544.45 615.35 534.89 609.71 525.49 603.84 C 527.03 597.57 531.81 595.35 536.05 591.06 C 538.80 588.60 542.71 585.21 546.69 586.16 C 550.98 588.09 554.37 592.05 558.31 594.67 C 562.58 597.47 566.42 601.93 571.51 602.58 C 572.86 602.73 575.01 603.32 576.19 602.48 C 577.96 600.41 579.53 598.11 581.02 595.84 C 579.15 594.35 576.79 593.42 574.68 592.30 C 575.65 591.59 576.63 590.89 577.60 590.19 C 576.48 590.08 575.37 589.96 574.25 589.85 C 571.36 584.94 568.79 579.84 566.24 574.75 C 565.54 572.96 564.43 571.38 565.36 569.46 C 568.47 561.88 575.70 555.80 582.80 552.04 Z" fill="#040000" />
<path d="M 223.45 554.35 C 226.24 556.21 228.74 558.54 231.20 560.79 C 239.45 568.54 247.59 576.42 255.78 584.22 C 259.39 587.72 263.85 590.10 267.51 593.49 C 269.38 595.38 271.06 597.93 269.68 600.61 C 267.49 604.54 264.29 608.01 261.42 611.46 C 259.02 614.49 255.04 615.88 251.32 614.81 C 249.44 613.87 247.88 612.06 246.43 610.57 C 243.09 606.90 239.38 603.63 236.07 599.95 C 233.94 597.70 231.82 595.18 228.72 594.31 C 225.36 593.51 221.37 593.01 218.79 595.83 C 214.66 599.88 210.11 605.91 210.66 612.01 C 210.71 615.74 214.71 617.70 217.31 619.69 C 221.32 622.53 226.89 626.03 227.80 631.26 C 228.61 634.98 225.36 637.65 223.14 640.12 C 220.27 642.87 217.62 646.18 214.31 648.40 C 212.24 649.59 210.38 648.54 208.56 647.47 C 203.39 644.15 200.43 638.78 195.79 635.23 C 193.16 633.19 189.70 632.31 186.52 633.46 C 183.59 635.44 181.25 638.29 178.56 640.59 C 172.07 647.13 167.54 655.52 161.14 662.15 C 159.08 664.09 156.65 666.36 153.89 667.16 C 151.67 667.48 149.24 665.72 147.56 664.43 C 143.51 661.11 139.41 656.94 136.16 652.84 C 134.82 650.96 133.39 649.02 134.61 646.68 C 136.33 643.46 140.27 641.21 143.14 639.09 C 147.23 636.27 150.11 632.17 153.40 628.42 C 171.92 606.93 190.46 585.47 208.98 563.99 C 211.45 561.17 213.71 558.07 216.47 555.53 C 218.18 553.92 221.37 552.93 223.45 554.35 Z" fill="#040000" />
<path d="M 581.14 580.03 L 581.87 579.63 L 582.57 580.06 L 582.56 580.89 L 581.84 581.29 L 581.13 580.86 L 581.14 580.03 Z" fill="#fdfbfb" />
<path d="M 220.35 581.57 C 221.96 583.31 222.59 584.87 223.07 587.18 C 221.69 585.37 220.91 583.78 220.35 581.57 Z" fill="#fdfbfb" />
<path d="M 227.12 586.16 C 228.91 584.97 230.05 587.75 227.95 588.17 C 226.82 587.85 226.54 587.18 227.12 586.16 Z" fill="#4faa42" />
<path d="M 208.15 587.58 C 209.87 587.17 209.96 589.90 208.20 589.54 C 207.42 588.90 207.41 588.25 208.15 587.58 Z" fill="#fdfbfb" />
<path d="M 211.98 587.44 C 212.97 587.24 213.97 587.06 214.97 586.88 C 214.79 588.04 214.60 589.20 214.42 590.35 C 213.58 589.40 212.74 588.45 211.98 587.44 Z" fill="#fdfbfb" />
<path d="M 204.04 589.32 L 204.86 589.33 L 205.25 590.06 L 204.82 590.76 L 204.00 590.74 L 203.60 590.02 L 204.04 589.32 Z" fill="#fdfbfb" />
<path d="M 194.34 591.26 C 195.36 590.26 197.33 590.84 197.63 592.23 C 197.40 594.37 193.26 593.26 194.34 591.26 Z" fill="#fdfbfb" />
<path d="M 590.19 596.27 C 591.88 596.48 591.70 598.72 590.08 598.89 C 588.35 598.65 588.57 596.49 590.19 596.27 Z" fill="#fdfbfb" />
<path d="M 182.10 597.00 C 183.22 596.57 185.02 597.48 184.36 598.83 C 183.07 600.32 179.98 598.40 182.10 597.00 Z" fill="#fdfbfb" />
<path d="M 201.93 597.85 C 204.61 597.98 205.52 599.19 207.14 601.07 C 205.06 600.33 202.24 600.63 201.93 597.85 Z" fill="#fdfbfb" />
<path d="M 557.27 598.16 L 557.99 597.74 L 558.70 598.15 L 558.71 598.98 L 557.99 599.39 L 557.28 598.98 L 557.27 598.16 Z" fill="#fdfbfb" />
<path d="M 584.15 602.14 L 584.97 602.15 L 585.38 602.87 L 584.96 603.57 L 584.13 603.56 L 583.73 602.85 L 584.15 602.14 Z" fill="#fdfbfb" />
<path d="M 278.00 602.49 C 285.51 602.90 292.17 608.05 298.81 611.16 C 305.35 614.41 312.46 615.67 318.94 619.03 C 324.64 621.93 330.59 625.61 333.40 631.61 C 336.00 636.97 335.08 642.50 334.17 648.14 C 332.44 657.08 330.66 665.78 325.41 673.42 C 322.64 677.30 319.77 681.29 315.20 683.14 C 313.21 684.25 309.34 685.19 308.52 687.51 C 307.89 691.90 309.65 696.72 309.90 701.14 C 310.36 705.37 307.91 709.75 307.13 714.00 C 306.12 719.52 303.38 724.11 301.14 729.14 C 298.62 734.82 299.04 741.16 296.76 746.76 C 295.70 749.15 293.99 751.10 291.12 750.69 C 287.08 749.84 283.66 746.86 279.66 745.62 C 276.06 744.19 272.02 743.62 270.58 739.46 C 269.27 734.26 271.35 727.99 273.00 723.04 C 275.64 715.44 280.51 708.10 282.26 700.33 C 283.36 695.69 282.03 689.92 278.27 686.81 C 275.26 684.85 271.70 683.72 268.50 682.10 C 268.70 684.09 269.51 686.68 268.66 688.56 C 267.28 691.51 265.34 694.17 263.94 697.13 C 262.10 700.64 261.57 704.39 260.07 708.04 C 257.30 715.06 255.03 722.76 251.28 729.33 C 249.81 732.06 246.40 732.20 243.81 731.16 C 239.57 729.33 236.61 726.15 231.91 725.10 C 229.38 724.23 225.91 724.15 224.70 721.31 C 222.60 717.58 225.23 712.98 226.07 709.15 C 227.07 704.54 229.07 700.38 231.19 696.20 C 238.88 680.20 246.41 664.12 254.13 648.13 C 256.08 644.17 257.62 640.08 258.94 635.87 C 260.32 635.73 261.69 635.58 263.06 635.41 C 262.11 634.18 261.13 632.96 260.15 631.74 C 263.67 622.86 267.38 614.00 271.25 605.26 C 272.41 602.27 275.29 602.51 278.00 602.49 Z" fill="#040000" />
<path d="M 198.06 606.10 C 199.86 604.89 200.95 607.67 198.86 608.10 C 197.73 607.80 197.46 607.13 198.06 606.10 Z" fill="#fdfbfb" />
<path d="M 514.66 606.18 C 522.34 610.39 524.22 621.04 530.43 626.59 C 533.73 629.87 535.86 633.75 538.47 637.54 C 546.57 649.13 554.53 660.82 562.52 672.48 C 565.26 676.51 569.24 679.20 571.73 683.43 C 577.10 692.18 584.52 699.70 589.42 708.65 C 590.94 711.45 590.49 713.16 588.32 715.37 C 584.23 719.41 578.66 718.27 574.54 721.53 C 573.00 722.61 571.46 723.95 569.73 724.70 C 567.41 725.05 565.03 723.05 563.50 721.51 C 560.53 718.35 557.93 714.87 554.91 711.75 C 549.47 712.96 543.05 715.12 540.19 720.30 C 538.35 725.17 541.87 731.40 540.45 736.42 C 539.01 739.94 533.96 741.46 530.76 742.88 C 527.24 744.12 523.75 746.51 520.05 746.97 C 518.21 746.78 514.99 745.84 514.76 743.63 C 513.51 737.76 512.45 731.88 510.84 726.08 C 508.38 716.95 506.77 707.42 503.45 698.60 C 502.02 694.64 501.29 690.60 500.41 686.49 C 498.18 676.05 495.03 666.02 492.34 655.63 C 489.86 646.11 487.23 636.62 484.76 627.11 C 483.93 623.55 483.44 620.17 486.49 617.49 C 490.91 614.17 496.99 613.91 501.60 610.60 C 504.98 608.50 510.58 604.46 514.66 606.18 Z" fill="#040000" />
<path d="M 584.02 605.94 C 583.89 606.87 583.76 607.80 583.63 608.73 C 581.96 608.71 580.29 608.68 578.63 608.61 C 580.30 607.27 581.98 606.54 584.02 605.94 Z" fill="#fdfbfb" />
<path d="M 595.12 606.97 C 594.52 607.78 593.88 608.55 593.20 609.28 C 592.09 609.30 590.95 609.12 589.84 608.99 C 591.57 608.19 593.30 607.53 595.12 606.97 Z" fill="#fdfbfb" />
<path d="M 541.30 608.17 L 542.01 607.75 L 542.73 608.16 L 542.73 608.98 L 542.02 609.40 L 541.30 609.00 L 541.30 608.17 Z" fill="#fdfbfb" />
<path d="M 190.18 609.29 C 191.95 608.12 193.11 610.86 191.00 611.29 C 189.85 610.97 189.58 610.30 190.18 609.29 Z" fill="#fdfbfb" />
<path d="M 606.07 609.39 L 606.90 609.39 L 607.31 610.11 L 606.90 610.82 L 606.07 610.82 L 605.66 610.11 L 606.07 609.39 Z" fill="#fdfbfb" />
<path d="M 566.22 610.38 C 567.64 609.52 569.01 611.26 567.88 612.46 C 566.47 613.34 565.09 611.58 566.22 610.38 Z" fill="#fdfbfb" />
<path d="M 194.19 612.26 C 195.98 611.08 197.16 613.83 195.03 614.25 C 193.88 613.94 193.60 613.28 194.19 612.26 Z" fill="#fdfbfb" />
<path d="M 188.34 615.24 C 190.10 614.03 191.26 616.85 189.16 617.25 C 188.05 616.93 187.77 616.25 188.34 615.24 Z" fill="#fdfbfb" />
<path d="M 583.42 615.14 C 584.54 613.81 586.34 614.97 585.52 616.53 C 584.39 617.86 582.63 616.70 583.42 615.14 Z" fill="#fdfbfb" />
<path d="M 182.23 616.04 L 182.95 615.64 L 183.66 616.06 L 183.65 616.88 L 182.93 617.29 L 182.22 616.87 L 182.23 616.04 Z" fill="#fdfbfb" />
<path d="M 569.28 616.26 C 571.11 616.61 570.11 619.01 568.57 617.98 C 568.08 617.11 568.31 616.53 569.28 616.26 Z" fill="#fdfbfb" />
<path d="M 173.54 617.08 C 174.55 616.04 176.23 617.08 175.47 618.42 C 174.46 619.45 172.78 618.43 173.54 617.08 Z" fill="#fdfbfb" />
<path d="M 177.21 619.20 C 179.00 618.00 180.14 620.79 178.04 621.20 C 176.91 620.89 176.63 620.22 177.21 619.20 Z" fill="#4faa42" />
<path d="M 583.13 619.27 C 584.93 618.12 586.06 620.88 583.94 621.28 C 582.79 620.95 582.52 620.28 583.13 619.27 Z" fill="#fdfbfb" />
<path d="M 210.14 621.73 C 211.61 620.98 213.04 623.41 211.87 624.46 C 210.33 625.24 208.99 622.83 210.14 621.73 Z" fill="#fdfbfb" />
<path d="M 290.67 620.61 C 293.35 620.94 294.61 621.10 296.32 623.34 C 293.92 622.93 292.29 622.55 290.67 620.61 Z" fill="#fdfbfb" />
<path d="M 584.11 624.21 C 585.90 623.04 587.03 625.81 584.92 626.22 C 583.79 625.90 583.52 625.23 584.11 624.21 Z" fill="#4faa42" />
<path d="M 595.58 623.47 C 595.31 624.88 595.02 626.29 594.72 627.69 C 593.68 627.74 592.64 627.77 591.60 627.81 C 592.76 626.10 593.98 624.77 595.58 623.47 Z" fill="#fdfbfb" />
<path d="M 165.02 626.01 C 167.87 626.79 167.43 628.70 168.06 631.09 C 166.18 629.48 165.38 628.53 165.02 626.01 Z" fill="#fdfbfb" />
<path d="M 192.40 626.11 C 193.43 624.71 195.46 626.37 193.79 627.38 C 192.73 627.49 192.26 627.07 192.40 626.11 Z" fill="#fdfbfb" />
<path d="M 188.03 627.27 L 188.86 627.26 L 189.27 627.98 L 188.86 628.69 L 188.04 628.70 L 187.62 627.98 L 188.03 627.27 Z" fill="#fdfbfb" />
<path d="M 507.14 628.39 C 508.68 627.40 509.67 629.80 507.85 630.13 C 506.87 629.85 506.63 629.27 507.14 628.39 Z" fill="#4faa42" />
<path d="M 360.63 629.14 C 366.80 630.04 373.73 630.72 379.34 633.58 C 381.21 634.40 381.03 636.24 381.28 637.98 C 381.51 642.14 379.57 646.51 378.46 650.48 C 376.54 656.74 376.79 662.76 376.11 669.19 C 375.20 677.39 373.63 685.51 371.45 693.48 C 370.29 697.62 369.84 701.83 369.40 706.10 C 368.13 718.41 366.77 730.71 365.25 743.00 C 364.51 748.12 365.21 753.72 363.69 758.66 C 362.13 762.69 357.91 763.30 354.09 762.85 C 347.01 761.76 340.19 759.09 333.21 757.45 C 333.57 753.72 334.18 750.02 334.49 746.28 C 335.64 737.02 338.81 727.95 340.71 718.86 C 342.92 692.37 346.74 665.41 349.90 638.97 C 350.31 636.54 350.54 633.18 352.32 631.33 C 354.60 628.90 357.50 628.71 360.63 629.14 Z" fill="#040000" />
<path d="M 500.29 629.18 C 502.09 627.95 503.18 630.75 501.09 631.18 C 499.96 630.88 499.70 630.21 500.29 629.18 Z" fill="#fdfbfb" />
<path d="M 591.04 629.51 C 592.57 628.50 593.55 630.88 591.75 631.24 C 590.77 630.97 590.53 630.39 591.04 629.51 Z" fill="#fdfbfb" />
<path d="M 301.24 630.27 C 301.76 630.79 301.76 630.79 301.24 630.27 Z" fill="#fdfbfb" />
<path d="M 586.23 631.40 C 588.08 631.61 587.67 634.62 586.00 634.82 C 584.08 634.58 584.56 631.67 586.23 631.40 Z" fill="#fdfbfb" />
<path d="M 600.25 631.26 C 602.02 630.08 603.18 632.86 601.08 633.27 C 599.95 632.94 599.67 632.27 600.25 631.26 Z" fill="#fdfbfb" />
<path d="M 438.04 632.47 C 444.73 632.46 450.02 635.95 455.00 640.03 C 459.01 643.41 460.19 647.71 463.11 651.91 C 466.78 656.84 467.05 663.13 468.05 668.99 C 469.24 677.85 471.13 686.61 472.29 695.46 C 472.79 704.43 473.22 713.45 474.36 722.36 C 474.84 726.46 473.65 730.84 472.96 734.92 C 471.54 741.23 469.54 747.24 465.12 752.11 C 461.58 756.18 457.48 758.80 452.29 760.28 C 447.54 761.53 442.85 763.82 438.04 764.08 C 434.46 764.40 430.85 764.10 427.29 764.43 C 420.24 766.22 413.99 768.59 406.50 766.55 C 404.63 765.87 402.04 765.10 401.55 762.89 C 400.15 758.11 400.13 752.92 400.12 748.00 C 400.08 742.27 399.25 736.77 398.62 731.10 C 397.20 717.84 395.69 704.59 394.32 691.33 C 392.37 675.99 390.41 660.64 388.37 645.31 C 388.21 643.70 388.00 641.94 388.30 640.33 C 389.31 637.40 392.17 635.84 395.12 635.48 C 401.70 634.66 408.36 634.61 414.97 633.96 C 422.65 633.54 430.35 632.47 438.04 632.47 Z" fill="#040000" />
<path d="M 272.30 633.96 L 273.02 633.55 L 273.73 633.97 L 273.72 634.80 L 273.01 635.20 L 272.30 634.78 L 272.30 633.96 Z" fill="#fdfbfb" />
<path d="M 305.41 642.51 C 307.03 648.33 302.46 655.28 300.83 660.78 C 300.05 662.76 301.27 665.18 301.72 667.16 C 299.96 665.40 298.97 663.61 296.21 663.69 C 296.40 665.30 296.61 666.91 296.85 668.51 C 293.09 666.02 289.04 665.87 284.80 664.91 C 281.86 664.28 281.06 660.89 281.45 658.31 C 282.29 653.30 285.23 648.60 286.77 643.73 C 287.75 641.24 288.33 638.14 290.01 636.03 C 295.73 632.40 303.83 636.01 305.41 642.51 Z" fill="#fdfbfb" />
<path d="M 498.23 635.96 C 499.92 635.55 500.70 637.55 499.11 638.32 C 497.42 638.71 496.66 636.75 498.23 635.96 Z" fill="#fdfbfb" />
<path d="M 511.31 635.88 C 509.62 638.09 507.54 639.65 505.19 641.09 C 504.72 640.36 504.25 639.63 503.78 638.90 C 506.20 637.60 508.64 636.54 511.31 635.88 Z" fill="#fdfbfb" />
<path d="M 606.31 636.25 C 606.83 636.77 606.83 636.77 606.31 636.25 Z" fill="#fdfbfb" />
<path d="M 319.09 639.19 L 319.91 639.19 L 320.32 639.90 L 319.91 640.62 L 319.09 640.62 L 318.68 639.90 L 319.09 639.19 Z" fill="#4faa42" />
<path d="M 157.22 641.09 C 158.99 639.92 160.18 642.69 158.06 643.10 C 156.93 642.78 156.64 642.11 157.22 641.09 Z" fill="#fdfbfb" />
<path d="M 284.23 640.98 L 284.96 640.59 L 285.66 641.02 L 285.64 641.85 L 284.91 642.24 L 284.21 641.81 L 284.23 640.98 Z" fill="#fdfbfb" />
<path d="M 511.39 641.27 C 512.76 640.08 515.09 641.76 513.89 643.34 C 512.52 644.48 510.23 642.86 511.39 641.27 Z" fill="#fdfbfb" />
<path d="M 518.15 641.19 L 518.98 641.21 L 519.37 641.94 L 518.94 642.64 L 518.12 642.63 L 517.72 641.90 L 518.15 641.19 Z" fill="#fdfbfb" />
<path d="M 525.12 641.35 C 526.92 640.16 528.02 642.90 525.94 643.35 C 524.79 643.04 524.52 642.38 525.12 641.35 Z" fill="#fdfbfb" />
<path d="M 276.40 642.03 C 278.47 641.61 279.14 644.18 277.16 644.86 C 275.15 645.19 274.49 642.74 276.40 642.03 Z" fill="#fdfbfb" />
<path d="M 505.08 644.08 C 504.24 645.01 503.38 645.92 502.52 646.83 C 502.00 646.20 501.49 645.57 500.98 644.93 C 502.34 644.64 503.71 644.35 505.08 644.08 Z" fill="#fdfbfb" />
<path d="M 421.21 645.23 C 422.44 643.98 424.56 645.23 423.62 646.87 C 422.39 648.10 420.25 646.88 421.21 645.23 Z" fill="#fdfbfb" />
<path d="M 280.32 649.01 C 278.39 648.72 276.50 648.34 274.62 647.81 C 277.40 646.64 278.09 647.30 280.32 649.01 Z" fill="#fdfbfb" />
<path d="M 321.16 649.20 C 322.93 648.02 324.09 650.80 321.99 651.21 C 320.85 650.90 320.57 650.23 321.16 649.20 Z" fill="#4faa42" />
<path d="M 516.59 649.11 C 517.77 647.95 519.54 649.29 518.74 650.73 C 517.59 651.90 515.79 650.52 516.59 649.11 Z" fill="#fdfbfb" />
<path d="M 509.20 650.34 C 510.95 649.34 512.04 651.41 510.70 652.64 C 508.95 653.63 507.82 651.57 509.20 650.34 Z" fill="#fdfbfb" />
<path d="M 269.06 651.50 C 270.48 650.64 271.93 652.31 270.71 653.52 C 269.29 654.39 267.87 652.72 269.06 651.50 Z" fill="#fdfbfb" />
<path d="M 502.18 651.10 L 502.89 650.68 L 503.60 651.09 L 503.61 651.91 L 502.90 652.33 L 502.18 651.93 L 502.18 651.10 Z" fill="#fdfbfb" />
<path d="M 424.11 653.21 C 425.90 653.90 424.61 656.20 423.02 655.90 C 421.17 655.17 422.46 652.92 424.11 653.21 Z" fill="#fdfbfb" />
<path d="M 431.06 653.22 L 431.88 653.24 L 432.28 653.96 L 431.84 654.67 L 431.01 654.65 L 430.62 653.93 L 431.06 653.22 Z" fill="#fdfbfb" />
<path d="M 257.33 654.01 L 258.05 653.60 L 258.76 654.03 L 258.75 654.86 L 258.03 655.26 L 257.31 654.84 L 257.33 654.01 Z" fill="#fdfbfb" />
<path d="M 407.12 654.25 L 407.94 654.25 L 408.36 654.96 L 407.95 655.68 L 407.12 655.68 L 406.71 654.96 L 407.12 654.25 Z" fill="#fdfbfb" />
<path d="M 522.65 653.90 C 524.99 658.27 527.91 661.89 530.90 665.78 C 534.33 672.73 537.95 679.47 541.87 686.15 C 543.26 688.25 543.18 691.41 540.64 692.52 C 536.23 694.58 531.99 696.24 528.62 699.94 C 529.08 698.39 529.67 696.76 529.76 695.14 C 528.19 690.19 524.97 686.51 521.89 682.60 C 521.89 679.46 522.66 676.70 521.31 673.65 C 519.03 668.03 517.42 661.49 518.30 655.42 C 519.44 653.93 520.99 654.17 522.65 653.90 Z" fill="#fdfbfb" />
<path d="M 310.21 655.60 C 311.78 654.78 312.96 657.28 311.81 658.34 C 310.24 659.14 309.06 656.65 310.21 655.60 Z" fill="#fdfbfb" />
<path d="M 438.49 655.20 C 439.36 654.16 441.42 654.25 441.62 655.80 C 441.32 657.98 437.40 657.51 438.49 655.20 Z" fill="#fdfbfb" />
<path d="M 532.03 655.03 C 533.56 654.01 534.56 656.40 532.75 656.76 C 531.77 656.49 531.53 655.92 532.03 655.03 Z" fill="#fdfbfb" />
<path d="M 414.90 655.99 C 417.02 656.61 418.66 656.40 419.08 659.04 C 417.59 658.15 416.18 657.17 414.90 655.99 Z" fill="#fdfbfb" />
<path d="M 507.61 656.25 C 508.72 655.28 510.22 656.62 509.42 657.84 C 508.31 658.81 506.81 657.46 507.61 656.25 Z" fill="#fdfbfb" />
<path d="M 431.41 657.57 C 435.24 659.65 437.74 663.63 437.98 667.99 C 438.67 676.80 440.58 685.33 440.82 694.17 C 440.89 697.46 441.26 700.66 441.89 703.89 C 442.77 708.24 442.52 712.61 443.16 716.95 C 443.52 719.28 444.73 721.42 445.04 723.74 C 444.83 726.80 444.19 729.85 443.70 732.88 C 443.25 736.14 440.07 738.90 437.31 740.36 C 434.78 741.60 432.07 740.81 430.51 738.49 C 428.35 734.97 427.50 730.56 426.42 726.61 C 425.70 724.21 427.23 721.57 427.43 719.08 C 427.16 715.33 425.46 711.85 425.48 708.00 C 425.51 702.09 423.53 696.53 423.73 690.63 C 423.94 684.85 421.96 679.75 421.60 674.00 C 421.36 669.66 420.24 664.58 421.38 660.37 C 422.85 656.49 428.09 655.76 431.41 657.57 Z" fill="#fdfbfb" />
<path d="M 276.21 659.98 C 278.36 659.40 278.53 662.19 276.89 662.95 C 274.76 663.50 274.59 660.75 276.21 659.98 Z" fill="#fdfbfb" />
<path d="M 258.98 662.12 C 260.72 660.95 261.90 663.73 259.83 664.15 C 258.70 663.82 258.41 663.15 258.98 662.12 Z" fill="#fdfbfb" />
<path d="M 305.02 663.21 L 305.85 663.20 L 306.28 663.91 L 305.87 664.63 L 305.05 664.64 L 304.62 663.93 L 305.02 663.21 Z" fill="#fdfbfb" />
<path d="M 269.17 665.18 C 270.95 663.99 272.10 666.76 270.00 667.18 C 268.86 666.88 268.58 666.21 269.17 665.18 Z" fill="#4faa42" />
<path d="M 279.58 664.89 C 279.67 665.88 279.77 666.87 279.86 667.85 C 278.86 667.78 277.86 667.71 276.86 667.64 C 277.52 665.79 277.70 665.52 279.58 664.89 Z" fill="#fdfbfb" />
<path d="M 414.62 665.09 C 415.65 664.06 417.34 665.11 416.51 666.45 C 415.48 667.47 413.82 666.42 414.62 665.09 Z" fill="#fdfbfb" />
<path d="M 254.77 667.11 C 256.01 667.17 257.25 667.26 258.48 667.37 C 258.72 668.25 258.94 669.14 259.16 670.02 C 257.67 669.09 256.21 668.13 254.77 667.11 Z" fill="#fdfbfb" />
<path d="M 536.12 667.28 C 536.96 667.11 537.53 667.40 537.82 668.17 C 538.07 669.85 535.66 670.83 535.04 669.05 C 534.98 668.21 535.34 667.63 536.12 667.28 Z" fill="#fdfbfb" />
<path d="M 411.31 668.42 C 412.46 667.30 414.28 668.63 413.48 670.05 C 412.32 671.20 410.50 669.86 411.31 668.42 Z" fill="#fdfbfb" />
<path d="M 499.08 669.35 L 499.90 669.34 L 500.33 670.05 L 499.93 670.77 L 499.10 670.78 L 498.68 670.07 L 499.08 669.35 Z" fill="#fdfbfb" />
<path d="M 273.08 670.30 L 273.90 670.30 L 274.33 671.01 L 273.93 671.73 L 273.10 671.73 L 272.68 671.02 L 273.08 670.30 Z" fill="#fdfbfb" />
<path d="M 281.53 670.54 C 285.69 670.95 289.45 670.87 292.58 674.06 C 288.01 675.44 285.16 672.81 281.53 670.54 Z" fill="#fdfbfb" />
<path d="M 442.05 670.69 C 443.34 669.60 445.38 671.04 444.26 672.54 C 442.93 673.77 440.90 672.22 442.05 670.69 Z" fill="#fdfbfb" />
<path d="M 554.13 671.34 L 554.95 671.34 L 555.36 672.06 L 554.94 672.77 L 554.11 672.77 L 553.71 672.05 L 554.13 671.34 Z" fill="#fdfbfb" />
<path d="M 538.42 672.11 C 539.45 670.68 541.42 672.39 539.78 673.40 C 538.74 673.52 538.28 673.09 538.42 672.11 Z" fill="#fdfbfb" />
<path d="M 279.57 673.70 C 275.79 676.35 271.88 675.84 267.63 674.93 C 271.56 674.34 275.60 673.76 279.57 673.70 Z" fill="#fdfbfb" />
<path d="M 410.25 673.30 C 410.75 673.82 410.75 673.82 410.25 673.30 Z" fill="#fdfbfb" />
<path d="M 453.04 672.79 C 451.75 673.99 450.41 675.02 448.94 675.97 C 450.17 674.38 451.18 673.59 453.04 672.79 Z" fill="#fdfbfb" />
<path d="M 299.90 676.38 C 301.16 676.91 302.19 678.07 303.22 678.94 C 300.97 678.72 298.78 678.38 296.58 677.83 C 297.66 677.32 298.75 676.72 299.90 676.38 Z" fill="#fdfbfb" />
<path d="M 360.46 676.27 C 361.30 675.31 363.50 675.16 363.67 676.76 C 363.32 678.81 359.27 678.65 360.46 676.27 Z" fill="#fdfbfb" />
<path d="M 543.13 676.20 C 544.91 675.01 546.06 677.79 543.96 678.20 C 542.82 677.89 542.55 677.22 543.13 676.20 Z" fill="#4faa42" />
<path d="M 257.25 677.68 C 258.44 676.82 260.14 678.73 259.31 679.87 C 258.10 680.83 256.42 678.83 257.25 677.68 Z" fill="#fdfbfb" />
<path d="M 280.20 677.15 C 281.94 675.99 283.16 678.79 281.05 679.18 C 279.92 678.84 279.63 678.16 280.20 677.15 Z" fill="#fdfbfb" />
<path d="M 296.36 678.71 C 294.45 678.79 292.55 678.79 290.65 678.72 C 293.00 677.25 294.26 675.94 296.36 678.71 Z" fill="#fdfbfb" />
<path d="M 419.60 677.77 L 419.98 680.18 C 418.46 680.18 416.95 680.16 415.44 680.10 C 416.63 678.82 417.98 678.31 419.60 677.77 Z" fill="#fdfbfb" />
<path d="M 517.61 677.97 C 517.61 678.83 517.60 679.70 517.59 680.56 C 516.73 680.55 515.86 680.54 514.99 680.53 C 515.86 679.67 516.74 678.82 517.61 677.97 Z" fill="#fdfbfb" />
<path d="M 408.16 679.20 C 407.71 680.37 407.23 681.54 406.76 682.71 C 405.78 682.45 404.81 682.17 403.83 681.90 C 405.26 680.97 406.70 680.07 408.16 679.20 Z" fill="#fdfbfb" />
<path d="M 246.93 681.00 C 249.46 681.43 250.61 682.22 252.32 684.08 C 249.74 683.47 247.79 684.04 246.93 681.00 Z" fill="#fdfbfb" />
<path d="M 276.48 681.10 C 278.68 681.36 280.70 682.14 282.75 682.97 C 280.53 683.49 278.30 683.91 276.05 684.26 C 276.17 683.20 276.32 682.15 276.48 681.10 Z" fill="#fdfbfb" />
<path d="M 412.17 681.16 C 413.96 679.97 415.10 682.75 413.00 683.17 C 411.87 682.85 411.59 682.19 412.17 681.16 Z" fill="#4faa42" />
<path d="M 452.27 682.18 C 453.95 681.25 455.24 683.26 453.86 684.51 C 452.20 685.42 450.94 683.42 452.27 682.18 Z" fill="#fdfbfb" />
<path d="M 553.45 683.18 C 550.83 684.85 548.61 685.00 545.56 684.83 C 548.17 682.99 550.34 682.96 553.45 683.18 Z" fill="#fdfbfb" />
<path d="M 260.25 686.13 C 261.38 684.99 263.35 686.02 262.38 687.56 C 261.23 688.71 259.30 687.69 260.25 686.13 Z" fill="#fdfbfb" />
<path d="M 290.18 686.23 C 291.99 686.60 291.00 688.99 289.46 687.95 C 288.96 687.06 289.20 686.49 290.18 686.23 Z" fill="#fdfbfb" />
<path d="M 297.18 685.99 L 297.90 685.59 L 298.60 686.02 L 298.59 686.85 L 297.86 687.24 L 297.16 686.81 L 297.18 685.99 Z" fill="#fdfbfb" />
<path d="M 516.71 686.10 C 517.68 685.08 519.45 686.08 518.78 687.43 C 517.84 688.42 516.03 687.41 516.71 686.10 Z" fill="#fdfbfb" />
<path d="M 265.05 688.12 C 266.57 687.08 267.58 689.46 265.78 689.84 C 264.80 689.59 264.56 689.01 265.05 688.12 Z" fill="#fdfbfb" />
<path d="M 357.40 688.23 C 356.63 688.98 355.88 690.20 354.83 690.55 C 353.81 690.32 352.80 689.91 351.82 689.55 C 353.67 689.04 355.52 688.60 357.40 688.23 Z" fill="#fdfbfb" />
<path d="M 419.11 688.33 L 419.93 688.35 L 420.33 689.07 L 419.90 689.78 L 419.07 689.76 L 418.68 689.04 L 419.11 688.33 Z" fill="#fdfbfb" />
<path d="M 256.18 689.91 C 257.94 689.55 258.43 691.60 256.86 692.29 C 255.06 692.65 254.58 690.62 256.18 689.91 Z" fill="#fdfbfb" />
<path d="M 554.45 690.51 C 552.81 691.03 550.24 691.66 548.69 690.66 C 549.37 688.74 553.16 689.42 554.45 690.51 Z" fill="#fdfbfb" />
<path d="M 290.06 691.28 L 290.88 691.27 L 291.30 691.98 L 290.90 692.71 L 290.07 692.72 L 289.66 692.00 L 290.06 691.28 Z" fill="#4faa42" />
<path d="M 247.09 692.25 C 248.86 691.08 250.01 693.83 247.92 694.26 C 246.78 693.94 246.50 693.27 247.09 692.25 Z" fill="#fdfbfb" />
<path d="M 525.69 691.87 C 526.19 692.92 526.68 693.98 527.16 695.04 C 525.62 695.45 524.07 695.84 522.52 696.21 C 523.42 694.63 524.42 693.18 525.69 691.87 Z" fill="#fdfbfb" />
<path d="M 295.17 692.91 C 296.84 692.54 297.46 694.64 295.97 695.37 C 294.26 695.74 293.66 693.67 295.17 692.91 Z" fill="#fdfbfb" />
<path d="M 347.35 694.09 L 348.07 693.69 L 348.78 694.10 L 348.77 694.93 L 348.05 695.33 L 347.34 694.92 L 347.35 694.09 Z" fill="#4faa42" />
<path d="M 404.96 693.75 C 404.23 694.77 403.49 695.79 402.75 696.81 C 401.76 696.51 400.77 696.20 399.78 695.89 C 401.50 695.15 403.22 694.44 404.96 693.75 Z" fill="#fdfbfb" />
<path d="M 519.20 694.07 L 519.92 693.65 L 520.63 694.06 L 520.63 694.89 L 519.92 695.31 L 519.20 694.90 L 519.20 694.07 Z" fill="#fdfbfb" />
<path d="M 421.20 695.05 C 422.78 694.08 423.68 696.51 421.85 696.79 C 420.88 696.48 420.66 695.90 421.20 695.05 Z" fill="#fdfbfb" />
<path d="M 445.22 695.25 C 447.03 695.61 445.99 698.03 444.48 696.98 C 444.00 696.10 444.25 695.52 445.22 695.25 Z" fill="#fdfbfb" />
<path d="M 556.34 696.00 C 553.46 698.14 550.21 698.72 546.81 699.54 C 550.04 696.63 551.78 695.61 556.34 696.00 Z" fill="#fdfbfb" />
<path d="M 239.40 698.15 C 241.19 696.94 242.29 699.75 240.20 700.16 C 239.08 699.84 238.81 699.17 239.40 698.15 Z" fill="#fdfbfb" />
<path d="M 284.32 699.14 C 285.59 697.84 287.57 699.20 286.66 700.83 C 285.39 702.14 283.41 700.76 284.32 699.14 Z" fill="#fdfbfb" />
<path d="M 396.99 700.16 C 398.75 698.98 399.89 701.75 397.83 702.18 C 396.69 701.87 396.41 701.20 396.99 700.16 Z" fill="#fdfbfb" />
<path d="M 522.13 701.37 C 523.66 700.37 524.66 702.78 522.84 703.11 C 521.86 702.83 521.63 702.25 522.13 701.37 Z" fill="#4faa42" />
<path d="M 563.20 701.02 C 564.96 699.82 566.18 702.59 564.06 703.01 C 562.91 702.70 562.62 702.04 563.20 701.02 Z" fill="#fdfbfb" />
<path d="M 546.37 705.45 C 542.83 705.98 539.28 705.45 535.72 705.96 C 535.39 705.46 535.06 704.96 534.72 704.47 C 538.69 703.06 542.40 704.61 546.37 705.45 Z" fill="#fdfbfb" />
<path d="M 255.80 706.06 C 253.85 707.98 252.94 707.60 250.48 707.10 C 252.47 704.60 253.04 705.44 255.80 706.06 Z" fill="#fdfbfb" />
<path d="M 415.08 705.51 C 416.62 704.49 417.60 706.86 415.79 707.23 C 414.80 706.96 414.57 706.39 415.08 705.51 Z" fill="#fdfbfb" />
<path d="M 448.17 706.23 C 449.95 705.01 451.10 707.77 449.01 708.22 C 447.87 707.93 447.59 707.26 448.17 706.23 Z" fill="#4faa42" />
<path d="M 345.03 708.08 C 346.80 706.89 347.93 709.66 345.85 710.08 C 344.71 709.77 344.44 709.10 345.03 708.08 Z" fill="#fdfbfb" />
<path d="M 528.20 709.21 C 529.98 708.02 531.13 710.80 529.02 711.21 C 527.89 710.90 527.61 710.23 528.20 709.21 Z" fill="#4faa42" />
<path d="M 532.47 709.06 C 533.71 707.77 535.84 708.94 534.86 710.64 C 533.65 711.90 531.54 710.72 532.47 709.06 Z" fill="#fdfbfb" />
<path d="M 411.09 713.07 C 412.91 713.43 411.89 715.83 410.36 714.81 C 409.87 713.93 410.11 713.35 411.09 713.07 Z" fill="#4faa42" />
<path d="M 468.39 713.20 C 469.65 711.86 471.66 713.13 470.71 714.80 C 469.46 716.14 467.45 714.87 468.39 713.20 Z" fill="#fdfbfb" />
<path d="M 517.98 716.10 C 519.73 714.93 520.92 717.69 518.84 718.11 C 517.69 717.80 517.40 717.13 517.98 716.10 Z" fill="#fdfbfb" />
<path d="M 538.21 716.26 C 540.19 717.01 538.85 719.49 537.09 719.19 C 535.17 718.41 536.42 715.94 538.21 716.26 Z" fill="#fdfbfb" />
<path d="M 526.48 719.13 C 527.51 717.66 529.42 719.40 527.83 720.43 C 526.80 720.55 526.35 720.12 526.48 719.13 Z" fill="#fdfbfb" />
<path d="M 356.25 722.35 C 357.70 721.25 359.73 723.25 358.61 724.71 C 357.18 725.85 355.09 723.79 356.25 722.35 Z" fill="#fdfbfb" />
<path d="M 421.22 722.19 C 423.00 721.00 424.15 723.78 422.05 724.19 C 420.92 723.88 420.64 723.21 421.22 722.19 Z" fill="#4faa42" />
<path d="M 410.67 726.13 C 412.55 726.05 414.43 725.98 416.31 725.93 C 415.89 727.38 415.46 728.81 415.02 730.25 C 413.55 728.90 412.09 727.53 410.67 726.13 Z" fill="#fdfbfb" />
<path d="M 453.28 727.14 C 456.11 727.02 453.76 730.18 452.10 729.68 C 450.44 728.90 452.09 727.26 453.28 727.14 Z" fill="#fdfbfb" />
<path d="M 420.21 731.29 C 422.00 730.11 423.16 732.85 421.04 733.28 C 419.89 732.97 419.61 732.31 420.21 731.29 Z" fill="#fdfbfb" />
<path d="M 455.29 733.20 C 456.82 731.94 458.74 733.79 457.51 735.36 C 456.04 736.63 454.05 734.71 455.29 733.20 Z" fill="#fdfbfb" />
<path d="M 413.28 734.09 C 414.51 732.82 416.62 734.01 415.64 735.69 C 414.41 736.97 412.32 735.76 413.28 734.09 Z" fill="#fdfbfb" />
<path d="M 358.10 737.25 C 359.87 736.08 361.02 738.83 358.92 739.26 C 357.78 738.94 357.51 738.27 358.10 737.25 Z" fill="#fdfbfb" />
<path d="M 412.14 738.14 C 413.93 736.96 415.07 739.72 412.97 740.15 C 411.84 739.83 411.56 739.16 412.14 738.14 Z" fill="#4faa42" />
<path d="M 426.03 739.04 C 427.78 737.86 428.99 740.62 426.89 741.04 C 425.74 740.72 425.46 740.06 426.03 739.04 Z" fill="#fdfbfb" />
<path d="M 417.45 742.33 C 418.44 741.24 420.36 741.81 420.67 743.22 C 420.45 745.39 416.39 744.40 417.45 742.33 Z" fill="#fdfbfb" />
<path d="M 433.33 743.39 C 434.47 742.19 436.24 743.57 435.45 745.00 C 434.28 746.19 432.52 744.84 433.33 743.39 Z" fill="#fdfbfb" />
<path d="M 425.17 744.19 C 426.99 744.52 425.96 746.96 424.44 745.94 C 423.96 745.06 424.20 744.48 425.17 744.19 Z" fill="#fdfbfb" />
<path d="M 416.14 748.38 C 417.65 747.35 418.69 749.74 416.88 750.11 C 415.90 749.84 415.65 749.27 416.14 748.38 Z" fill="#4faa42" />
<path d="M 446.40 752.15 L 447.12 751.74 L 447.83 752.17 L 447.81 753.00 L 447.09 753.40 L 446.38 752.97 L 446.40 752.15 Z" fill="#fdfbfb" />
<path d="M 435.38 753.35 C 436.35 753.72 437.29 754.20 438.23 754.65 C 436.72 755.08 435.21 755.47 433.69 755.84 C 434.22 754.99 434.79 754.16 435.38 753.35 Z" fill="#fdfbfb" />
</svg>
