<?xml version="1.0" encoding="UTF-8" standalone="no"?>
<svg
   xmlns:dc="http://purl.org/dc/elements/1.1/"
   xmlns:cc="http://creativecommons.org/ns#"
   xmlns:rdf="http://www.w3.org/1999/02/22-rdf-syntax-ns#"
   xmlns:svg="http://www.w3.org/2000/svg"
   xmlns="http://www.w3.org/2000/svg"
   xmlns:sodipodi="http://sodipodi.sourceforge.net/DTD/sodipodi-0.dtd"
   xmlns:inkscape="http://www.inkscape.org/namespaces/inkscape"
   version="1.1"
   id="svg2"
   xml:space="preserve"
   width="549.77332"
   height="357.29333"
   viewBox="0 0 549.77332 357.29333"
   sodipodi:docname="logo.eps"><metadata
     id="metadata8"><rdf:RDF><cc:Work
         rdf:about=""><dc:format>image/svg+xml</dc:format><dc:type
           rdf:resource="http://purl.org/dc/dcmitype/StillImage" /></cc:Work></rdf:RDF></metadata><defs
     id="defs6" /><sodipodi:namedview
     pagecolor="#ffffff"
     bordercolor="#666666"
     borderopacity="1"
     objecttolerance="10"
     gridtolerance="10"
     guidetolerance="10"
     inkscape:pageopacity="0"
     inkscape:pageshadow="2"
     inkscape:window-width="640"
     inkscape:window-height="480"
     id="namedview4" /><g
     id="g10"
     inkscape:groupmode="layer"
     inkscape:label="ink_ext_XXXXXX"
     transform="matrix(1.3333333,0,0,-1.3333333,0,357.29333)"><g
       id="g12"
       transform="scale(0.1)"><path
         d="M 56.9766,30.2695 C 29.2773,50.4609 10.2813,78.7383 0,115.148 L 48.0781,134.73 C 54.8008,109.41 67.2656,88.6406 85.4688,72.4219 103.668,56.1914 125.035,48.0781 149.574,48.0781 c 24.528,0 45.305,6.6211 62.321,19.8907 17.011,13.25 25.523,31.3515 25.523,54.3012 0,19.789 -7.223,36.109 -21.664,48.968 -14.449,12.864 -38.09,24.832 -70.93,35.922 l -26.711,9.488 c -30.0778,10.684 -54.6013,24.723 -73.5974,42.141 -18.9922,17.41 -28.4883,41.551 -28.4883,72.41 0,20.18 5.5352,38.883 16.6133,56.09 11.0742,17.223 26.5117,30.961 46.3008,41.25 19.7813,10.293 41.9376,15.43 66.4806,15.43 24.523,0 45.894,-4.547 64.098,-13.641 18.195,-9.109 32.742,-20.187 43.628,-33.238 10.875,-13.059 18.493,-25.918 22.852,-38.59 l -47.484,-20.172 c -3.961,14.633 -12.965,27.891 -27.008,39.762 -14.051,11.879 -32.555,17.808 -55.496,17.808 -21.77,0 -40.364,-6.136 -55.7932,-18.398 -15.4336,-12.27 -23.1485,-27.711 -23.1485,-46.301 0,-16.609 6.5274,-30.179 19.586,-40.66 13.0625,-10.48 32.8397,-20.277 59.3557,-29.379 l 27.894,-9.488 c 36.004,-13.063 64.106,-29.391 84.285,-48.973 20.184,-19.59 30.27,-46.211 30.27,-79.828 0,-27.3124 -7.023,-50.2616 -21.066,-68.8593 C 253.34,35.4102 235.641,21.7617 214.27,13.0586 192.898,4.35938 170.941,0.0117188 148.383,0.0117188 115.145,0.0117188 84.6719,10.0898 56.9766,30.2695"
         style="fill:#757575;fill-opacity:1;fill-rule:nonzero;stroke:none"
         id="path14" /><path
         d="m 574.547,192.91 c -0.797,12.649 -4.359,25.309 -10.684,37.988 -6.336,12.653 -16.324,23.34 -29.976,32.051 C 520.234,271.648 503.113,276 482.551,276 458.805,276 438.715,268.379 422.301,253.148 405.879,237.922 395.094,217.84 389.949,192.91 Z M 409.543,20.7813 c -22.957,13.8476 -40.867,32.9375 -53.719,57.2695 -12.863,24.3402 -19.293,51.7302 -19.293,82.2112 0,29.277 6.032,56.179 18.11,80.718 12.062,24.54 29.172,44.122 51.336,58.758 22.16,14.641 47.875,21.973 77.164,21.973 29.675,0 55.394,-6.629 77.164,-19.891 21.758,-13.261 38.472,-31.558 50.148,-54.898 11.672,-23.363 17.512,-50.07 17.512,-80.133 0,-5.93 -0.594,-11.078 -1.777,-15.437 h -239.2 c 1.188,-22.942 6.723,-42.34 16.617,-58.1606 9.887,-15.832 22.454,-27.7031 37.688,-35.6094 15.23,-7.9218 31.164,-11.8711 47.785,-11.8711 38.774,0 68.649,18.1875 89.621,54.5981 L 621.438,79.5391 C 608.379,55 590.664,35.6094 568.316,21.3711 545.953,7.12891 518.945,0.0117188 487.297,0.0117188 c -28.891,0 -54.813,6.9179712 -77.754,20.7695812"
         style="fill:#757575;fill-opacity:1;fill-rule:nonzero;stroke:none"
         id="path16" /><path
         d="m 838.66,57.582 c 14.641,8.6993 26.317,20.3789 35.024,35.0078 8.699,14.6402 13.058,30.6722 13.058,48.0822 -9.496,6.328 -21.176,11.476 -35.019,15.43 -13.856,3.957 -28.493,5.937 -43.926,5.937 -27.699,0 -48.574,-5.738 -62.617,-17.207 -14.051,-11.48 -21.071,-26.332 -21.071,-44.523 0,-16.6176 6.325,-30.0785 18.993,-40.3598 12.66,-10.289 28.683,-15.4297 48.082,-15.4297 17.004,0 32.836,4.3399 47.476,13.0625 z M 727.074,13.0586 c -17.418,8.7031 -30.863,20.6797 -40.359,35.9102 -9.496,15.2304 -14.242,32.5429 -14.242,51.9412 0,32.051 12.062,57.07 36.203,75.078 24.133,18 54.605,27.012 91.406,27.012 18.199,0 35.113,-1.988 50.746,-5.941 15.633,-3.957 27.606,-8.52 35.914,-13.649 v 18.391 c 0,22.558 -7.918,40.668 -23.746,54.32 -15.828,13.649 -35.812,20.481 -59.945,20.481 -17.016,0 -32.645,-3.661 -46.891,-10.993 -14.246,-7.32 -25.519,-17.507 -33.832,-30.558 l -37.988,28.488 c 11.871,18.199 28.195,32.441 48.973,42.742 20.769,10.278 43.816,15.43 69.144,15.43 41.152,0 73.5,-10.789 97.047,-32.359 23.539,-21.571 35.316,-50.942 35.316,-88.133 V 9.5 h -48.078 v 43.3281 h -2.379 C 875.66,38.1797 862.602,25.7188 845.195,15.4414 827.777,5.14844 808.188,0.0117188 786.43,0.0117188 c -22.16,0 -41.95,4.3476612 -59.356,13.0468812"
         style="fill:#757575;fill-opacity:1;fill-rule:nonzero;stroke:none"
         id="path18" /><path
         d="M 1026.23,22.8594 C 1004.46,38.0781 989.027,57.582 979.934,81.3203 L 1025.04,101.5 c 7.51,-18.1992 18.7,-32.25 33.53,-42.1484 14.84,-9.8907 31.17,-14.8321 48.97,-14.8321 18.99,0 35.21,3.8594 48.67,11.5703 13.45,7.7188 20.18,18.6993 20.18,32.9415 0,12.6677 -5.34,22.8477 -16.02,30.5777 -10.69,7.711 -27.51,14.332 -50.45,19.879 l -36.8,9.492 c -24.15,5.942 -43.93,16.032 -59.36,30.282 -15.432,14.238 -23.147,32.636 -23.147,55.187 0,17.41 5.242,32.742 15.727,46.012 10.48,13.25 24.43,23.437 41.85,30.559 17.41,7.121 36.2,10.691 56.39,10.691 26.5,0 50.15,-5.75 70.92,-17.223 20.78,-11.468 35.52,-27.5 44.22,-48.078 l -43.92,-20.172 c -13.46,26.903 -37.39,40.364 -71.82,40.364 -16.62,0 -31.16,-3.864 -43.62,-11.582 -12.47,-7.719 -18.7,-17.508 -18.7,-29.379 0,-11.082 4.35,-20.09 13.06,-27.012 8.69,-6.918 21.75,-12.559 39.17,-16.91 l 43.92,-11.278 c 29.68,-7.519 52.03,-18.691 67.07,-33.543 15.04,-14.828 22.56,-32.937 22.56,-54.3082 0,-18.6015 -5.35,-34.9179 -16.03,-48.9609 -10.68,-14.0469 -25.13,-24.8281 -43.32,-32.3476 -18.21,-7.51177 -38.39,-11.2695812 -60.55,-11.2695812 -32.45,0 -59.56,7.6093712 -81.31,22.8476812"
         style="fill:#757575;fill-opacity:1;fill-rule:nonzero;stroke:none"
         id="path20" /><path
         d="m 1477.01,59.6602 c 16.03,9.2812 28.88,22.6406 38.58,40.0507 9.69,17.4181 14.54,37.7891 14.54,61.1481 0,23.34 -4.85,43.711 -14.54,61.129 -9.7,17.41 -22.55,30.762 -38.58,40.071 -16.02,9.293 -33.34,13.941 -51.94,13.941 -18.6,0 -36.01,-4.648 -52.23,-13.941 -16.23,-9.309 -29.18,-22.661 -38.88,-40.071 -9.7,-17.418 -14.54,-37.789 -14.54,-61.129 0,-23.359 4.84,-43.73 14.54,-61.1481 9.7,-17.4101 22.65,-30.7695 38.88,-40.0507 16.22,-9.3086 33.63,-13.9493 52.23,-13.9493 18.6,0 35.92,4.6407 51.94,13.9493 z M 1344.95,21.3711 c -23.74,14.2383 -42.25,33.6289 -55.5,58.168 -13.26,24.5309 -19.88,51.6409 -19.88,81.3199 0,29.672 6.62,56.77 19.88,81.313 13.25,24.527 31.76,43.918 55.5,58.168 23.74,14.25 50.45,21.371 80.12,21.371 29.68,0 56.39,-7.121 80.14,-21.371 23.74,-14.25 42.23,-33.641 55.49,-58.168 13.26,-24.543 19.89,-51.641 19.89,-81.313 0,-29.679 -6.63,-56.789 -19.89,-81.3199 C 1547.44,55 1528.95,35.6094 1505.21,21.3711 1481.46,7.12891 1454.75,0.0117188 1425.07,0.0117188 c -29.67,0 -56.38,7.1171912 -80.12,21.3593812"
         style="fill:#757575;fill-opacity:1;fill-rule:nonzero;stroke:none"
         id="path22" /><path
         d="m 1633.41,312.199 h 48.07 v -44.508 h 2.38 c 8.31,15.028 21.56,27.797 39.77,38.278 18.2,10.48 37.59,15.742 58.17,15.742 36.4,0 64.19,-10.602 83.39,-31.762 19.19,-21.168 28.78,-49.961 28.78,-86.359 V 9.5 h -50.44 v 186.379 c 0,28.082 -6.74,48.461 -20.19,61.133 -13.45,12.66 -31.85,18.988 -55.2,18.988 -16.23,0 -30.77,-4.551 -43.62,-13.648 -12.86,-9.114 -22.85,-21.071 -29.97,-35.911 -7.13,-14.839 -10.69,-30.371 -10.69,-46.589 V 9.5 h -50.45 v 302.699"
         style="fill:#757575;fill-opacity:1;fill-rule:nonzero;stroke:none"
         id="path24" /><path
         d="m 2295.5,59.6602 c 16.02,9.2812 28.89,22.6406 38.58,40.0507 9.68,17.4181 14.55,37.7891 14.55,61.1481 0,23.34 -4.87,43.711 -14.55,61.129 -9.69,17.41 -22.56,30.762 -38.58,40.071 -16.03,9.293 -33.34,13.941 -51.93,13.941 -18.61,0 -36.02,-4.648 -52.23,-13.941 -16.23,-9.309 -29.2,-22.661 -38.88,-40.071 -9.71,-17.418 -14.54,-37.789 -14.54,-61.129 0,-23.359 4.83,-43.73 14.54,-61.1481 9.68,-17.4101 22.65,-30.7695 38.88,-40.0507 16.21,-9.3086 33.62,-13.9493 52.23,-13.9493 18.59,0 35.9,4.6407 51.93,13.9493 z M 2163.43,21.3711 c -23.73,14.2383 -42.24,33.6289 -55.49,58.168 -13.26,24.5309 -19.88,51.6409 -19.88,81.3199 0,29.672 6.62,56.77 19.88,81.313 13.25,24.527 31.76,43.918 55.49,58.168 23.75,14.25 50.45,21.371 80.14,21.371 29.67,0 56.39,-7.121 80.12,-21.371 23.75,-14.25 42.24,-33.641 55.5,-58.168 13.25,-24.543 19.89,-51.641 19.89,-81.313 0,-29.679 -6.64,-56.789 -19.89,-81.3199 C 2365.93,55 2347.44,35.6094 2323.69,21.3711 2299.96,7.12891 2273.24,0.0117188 2243.57,0.0117188 c -29.69,0 -56.39,7.1171912 -80.14,21.3593812"
         style="fill:#757575;fill-opacity:1;fill-rule:nonzero;stroke:none"
         id="path26" /><path
         d="m 2483.96,266.5 h -55.8 v 45.699 h 55.8 v 32.653 c 0,19 4.34,35.617 13.05,49.859 8.71,14.238 20.39,25.23 35.02,32.937 14.64,7.723 30.88,11.582 48.67,11.582 17.01,0 31.85,-2.378 44.53,-7.121 V 382.84 c -7.13,2.762 -13.87,5.051 -20.2,6.832 -6.32,1.769 -13.84,2.668 -22.55,2.668 -13.05,0 -24.34,-4.66 -33.83,-13.949 -9.49,-9.301 -14.24,-22.262 -14.24,-38.879 v -27.313 h 77.75 V 266.5 h -77.75 V 9.5 h -50.45 v 257"
         style="fill:#757575;fill-opacity:1;fill-rule:nonzero;stroke:none"
         id="path28" /><path
         d="m 2949.88,57.582 c 50.25,0 90.12,14.4375 119.61,43.328 29.47,28.871 44.22,69.231 44.22,121.078 0,51.844 -14.75,92.203 -44.22,121.082 -29.49,28.879 -69.36,43.328 -119.61,43.328 h -78.34 V 57.582 Z M 2821.67,434.48 h 128.21 c 43.53,0 81.5,-9 113.96,-27 32.44,-18.019 57.37,-43.039 74.79,-75.089 17.4,-32.051 26.11,-68.852 26.11,-110.403 0,-41.547 -8.71,-78.347 -26.11,-110.398 -17.42,-32.0509 -42.35,-57.0783 -74.79,-75.09 -32.46,-18.0117 -70.43,-27 -113.96,-27 h -128.21 v 424.98"
         style="fill:#757575;fill-opacity:1;fill-rule:nonzero;stroke:none"
         id="path30" /><path
         d="m 3411.36,59.6602 c 16.02,9.2812 28.89,22.6406 38.58,40.0507 9.68,17.4181 14.55,37.7891 14.55,61.1481 0,23.34 -4.87,43.711 -14.55,61.129 -9.69,17.41 -22.56,30.762 -38.58,40.071 -16.03,9.293 -33.34,13.941 -51.93,13.941 -18.61,0 -36.02,-4.648 -52.23,-13.941 -16.23,-9.309 -29.2,-22.661 -38.88,-40.071 -9.71,-17.418 -14.54,-37.789 -14.54,-61.129 0,-23.359 4.83,-43.73 14.54,-61.1481 9.68,-17.4101 22.65,-30.7695 38.88,-40.0507 16.21,-9.3086 33.62,-13.9493 52.23,-13.9493 18.59,0 35.9,4.6407 51.93,13.9493 z M 3279.29,21.3711 c -23.73,14.2383 -42.24,33.6289 -55.49,58.168 -13.26,24.5309 -19.88,51.6409 -19.88,81.3199 0,29.672 6.62,56.77 19.88,81.313 13.25,24.527 31.76,43.918 55.49,58.168 23.75,14.25 50.45,21.371 80.14,21.371 29.67,0 56.39,-7.121 80.12,-21.371 23.75,-14.25 42.24,-33.641 55.5,-58.168 13.25,-24.543 19.89,-51.641 19.89,-81.313 0,-29.679 -6.64,-56.789 -19.89,-81.3199 C 3481.79,55 3463.3,35.6094 3439.55,21.3711 3415.82,7.12891 3389.1,0.0117188 3359.43,0.0117188 c -29.69,0 -56.39,7.1171912 -80.14,21.3593812"
         style="fill:#757575;fill-opacity:1;fill-rule:nonzero;stroke:none"
         id="path32" /><path
         d="m 3631.85,21.0703 c -23.34,14.0391 -41.54,33.2383 -54.59,57.5781 -13.07,24.3396 -19.59,51.7306 -19.59,82.2106 0,30.461 6.52,57.961 19.59,82.5 13.05,24.532 31.25,43.719 54.59,57.571 23.36,13.851 49.67,20.781 78.95,20.781 32.85,0 60.45,-7.633 82.81,-22.859 22.34,-15.231 38.28,-35.512 47.77,-60.832 l -45.7,-19 c -7.52,18.589 -18.69,32.742 -33.54,42.441 -14.84,9.687 -32.75,14.539 -53.71,14.539 -17.81,0 -34.43,-4.852 -49.86,-14.539 -15.43,-9.699 -27.81,-23.25 -37.09,-40.66 -9.32,-17.41 -13.95,-37.391 -13.95,-59.942 0,-22.558 4.63,-42.539 13.95,-59.949 9.28,-17.4217 21.66,-30.9686 37.09,-40.66 15.43,-9.7109 32.05,-14.5391 49.86,-14.5391 21.37,0 39.77,4.9375 55.2,14.8282 15.43,9.8906 26.89,23.9414 34.43,42.1409 l 45.1,-18.9886 C 3832.87,58.7695 3816.34,38.582 3793.61,23.1484 3770.83,7.71875 3743.24,0.0117188 3710.8,0.0117188 c -29.28,0 -55.59,7.0195312 -78.95,21.0585812"
         style="fill:#757575;fill-opacity:1;fill-rule:nonzero;stroke:none"
         id="path34" /><path
         d="m 3922.1,22.8594 c -21.77,15.2187 -37.2,34.7226 -46.3,58.4609 l 45.11,20.1797 c 7.52,-18.1992 18.69,-32.25 33.54,-42.1484 14.84,-9.8907 31.15,-14.8321 48.96,-14.8321 19.01,0 35.22,3.8594 48.67,11.5703 13.46,7.7188 20.18,18.6993 20.18,32.9415 0,12.6677 -5.33,22.8477 -16.01,30.5777 -10.69,7.711 -27.52,14.332 -50.45,19.879 l -36.8,9.492 c -24.14,5.942 -43.93,16.032 -59.36,30.282 -15.45,14.238 -23.16,32.636 -23.16,55.187 0,17.41 5.25,32.742 15.74,46.012 10.47,13.25 24.42,23.437 41.84,30.559 17.4,7.121 36.21,10.691 56.38,10.691 26.51,0 50.16,-5.75 70.94,-17.223 20.76,-11.468 35.51,-27.5 44.22,-48.078 l -43.93,-20.172 c -13.45,26.903 -37.4,40.364 -71.81,40.364 -16.62,0 -31.17,-3.864 -43.63,-11.582 -12.47,-7.719 -18.7,-17.508 -18.7,-29.379 0,-11.082 4.36,-20.09 13.05,-27.012 8.71,-6.918 21.76,-12.559 39.18,-16.91 l 43.93,-11.278 c 29.68,-7.519 52.03,-18.691 67.07,-33.543 15.04,-14.828 22.56,-32.937 22.56,-54.3082 0,-18.6015 -5.36,-34.9179 -16.04,-48.9609 -10.68,-14.0469 -25.12,-24.8281 -43.32,-32.3476 -18.2,-7.51177 -38.38,-11.2695812 -60.55,-11.2695812 -32.44,0 -59.55,7.6093712 -81.31,22.8476812"
         style="fill:#757575;fill-opacity:1;fill-rule:nonzero;stroke:none"
         id="path36" /><path
         d="m 2769.95,2239.09 -420.93,440.6 h -5.17 v -440.6 h 426.1"
         style="fill:#eabd5a;fill-opacity:1;fill-rule:nonzero;stroke:none"
         id="path38" /><path
         d="M 2251.25,2679.69 H 1339.59 V 910.219 H 2772.57 V 2146.49 h -521.32 v 533.2"
         style="fill:#eabd5a;fill-opacity:1;fill-rule:nonzero;stroke:none"
         id="path40" /><path
         d="m 2251.35,1979.42 v -108.37 l 174.6,-136.07 -174.6,-136.07 v -108.38 l 12.04,8.44 258.9,201.08 16.86,13.25 v 40.95 l -16.86,13.24 -260.1,202.3 -10.84,9.63 v 0 0 z m -387.73,0 -12.04,-8.43 -258.89,-201.09 -16.86,-13.25 v -40.94 l 16.86,-13.25 258.89,-201.09 12.04,-8.43 v 108.38 l -174.6,133.66 174.6,136.07 v 108.37 0 0 z m 227.59,86.7 -1.21,-4.82 -143.3,-632.18 -4.81,-24.08 H 2031 l 1.2,4.82 143.29,632.18 4.82,24.08 h -89.1 v 0 0"
         style="fill:#ffffff;fill-opacity:1;fill-rule:evenodd;stroke:none"
         id="path42" /><path
         d="m 2772.57,1930.73 v -100.14 c 138.52,-58.65 218.22,-131.36 218.22,-200.51 0,-151.48 -381.59,-320.26 -929.13,-320.26 -211.29,0 -397.7,25.19 -547.17,64.76 -2.03,-32.43 -12.48,-62.55 -29.44,-88.08 167.86,-44.95 367.45,-69.28 576.61,-69.28 265.97,0 516.7,39.19 706.02,110.33 203.57,76.5 315.7,183.95 315.7,302.53 0,117.62 -110.36,224.27 -310.81,300.65"
         style="fill:#757575;fill-opacity:1;fill-rule:nonzero;stroke:none"
         id="path44" /><path
         d="m 1132.52,1630.08 c 0,66.51 73.58,136.34 202.43,193.76 v 100.76 c -190.46,-75.9 -295.02,-180.02 -295.02,-294.52 0,-72.34 41.8,-140.52 120.56,-200.08 7.88,31.33 23.84,59.42 45.72,81.8 -47.73,38.43 -73.69,78.93 -73.69,118.28"
         style="fill:#757575;fill-opacity:1;fill-rule:nonzero;stroke:none"
         id="path46" /><path
         d="m 1334.95,1566.08 c -50.48,0 -96.04,-20.82 -128.74,-54.28 -21.88,-22.38 -37.84,-50.47 -45.72,-81.8 -3.56,-14.11 -5.65,-28.81 -5.65,-44.03 0,-99.48 80.64,-180.11 180.11,-180.11 62.69,0 117.84,32.06 150.1,80.64 16.96,25.53 27.41,55.65 29.44,88.08 0.24,3.79 0.58,7.55 0.58,11.39 0,99.47 -80.64,180.11 -180.12,180.11"
         style="fill:#ca5948;fill-opacity:1;fill-rule:nonzero;stroke:none"
         id="path48" /></g></g></svg>
