<?xml version="1.0" standalone="no"?>
<!DOCTYPE svg PUBLIC "-//W3C//DTD SVG 20010904//EN"
 "http://www.w3.org/TR/2001/REC-SVG-20010904/DTD/svg10.dtd">
<svg version="1.0" xmlns="http://www.w3.org/2000/svg"
 width="258.000000pt" height="258.000000pt" viewBox="0 0 258.000000 258.000000"
 preserveAspectRatio="xMidYMid meet">
<metadata>
Created by potrace 1.16, written by Peter Selinger 2001-2019
</metadata>
<g transform="translate(0.000000,258.000000) scale(0.020156,-0.020156)"
fill="#44a838" stroke="none">
<path d="M0 11445 l0 -1355 1355 0 1355 0 0 1355 0 1355 -1355 0 -1355 0 0
-1355z m2330 0 l0 -975 -975 0 -975 0 0 968 c0 533 3 972 7 975 3 4 442 7 975
7 l968 0 0 -975z"/>
<path d="M780 11440 l0 -580 580 0 580 0 0 580 0 580 -580 0 -580 0 0 -580z"/>
<path d="M3110 12025 l0 -775 190 0 190 0 0 -195 0 -195 -190 0 -190 0 0 -385
0 -385 190 0 190 0 0 195 0 195 195 0 195 0 0 -585 0 -585 190 0 190 0 0 195
0 195 195 0 195 0 0 190 0 190 -192 2 -193 3 -3 773 -2 772 -190 0 -190 0 0
195 0 195 -195 0 -195 0 0 390 0 390 -190 0 -190 0 0 -775z"/>
<path d="M5050 12605 l0 -195 -390 0 -390 0 0 -190 0 -190 195 0 195 0 0 -585
0 -585 385 0 385 0 0 385 0 385 -195 0 -195 0 0 200 0 200 195 0 195 0 0 195
0 195 580 0 580 0 0 190 0 190 -770 0 -770 0 0 -195z"/>
<path d="M7760 12610 l0 -190 190 0 190 0 0 190 0 190 -190 0 -190 0 0 -190z"/>
<path d="M8920 12610 l0 -190 195 0 195 0 0 190 0 190 -195 0 -195 0 0 -190z"/>
<path d="M10090 11445 l0 -1355 1355 0 1355 0 0 1355 0 1355 -1355 0 -1355 0
0 -1355z m2328 -2 l2 -973 -975 0 -975 0 0 975 0 975 973 -2 972 -3 3 -972z"/>
<path d="M10860 11440 l0 -580 580 0 580 0 0 580 0 580 -580 0 -580 0 0 -580z"/>
<path d="M6600 12215 l0 -195 -390 0 -390 0 0 -580 0 -580 190 0 190 0 0 390
0 390 395 0 395 0 0 -390 0 -390 -195 0 -195 0 0 -190 0 -190 193 -2 192 -3 0
-195 0 -195 -192 -3 -193 -2 -2 -193 -3 -192 -192 -3 -193 -2 0 -190 0 -190
385 0 385 0 0 195 0 195 195 0 195 0 0 390 0 390 190 0 190 0 0 190 0 190
-190 0 -190 0 0 390 0 390 195 0 195 0 0 -390 0 -390 190 0 190 0 0 390 0 390
195 0 195 0 0 385 0 385 -190 0 -190 0 0 -195 0 -195 -197 2 -198 3 -3 193 -2
192 -190 0 -190 0 0 -195 0 -195 -195 0 -195 0 0 195 0 195 -190 0 -190 0 0
-195z"/>
<path d="M9310 11830 l0 -190 190 0 190 0 0 190 0 190 -190 0 -190 0 0 -190z"/>
<path d="M8538 10663 l-3 -578 -192 -3 -193 -2 0 -385 0 -385 -195 0 -195 0 0
-390 0 -390 -390 0 -390 0 0 195 0 195 -190 0 -190 0 0 -195 0 -195 -200 0
-200 0 0 390 0 390 -575 0 -575 0 0 -385 0 -385 385 0 385 0 0 -195 0 -195
390 0 390 0 0 -190 0 -190 575 0 575 0 2 188 3 187 198 3 197 2 0 -195 0 -195
195 0 195 0 0 -195 0 -195 190 0 190 0 0 -190 0 -190 385 0 385 0 0 190 0 190
-190 0 -190 0 0 195 0 195 190 0 190 0 2 193 3 192 193 3 192 2 0 190 0 190
-195 0 -195 0 0 195 0 195 -190 0 -190 0 0 195 0 195 190 0 190 0 0 580 0 580
-190 0 -190 0 0 -195 0 -195 -195 0 -195 0 0 390 0 390 385 0 385 0 0 190 0
190 -575 0 -575 0 -2 -577z m382 -1543 l0 -580 195 0 195 0 0 -200 0 -200
-390 0 -390 0 0 195 0 195 -195 0 -195 0 0 195 0 195 195 0 195 0 0 390 0 390
195 0 195 0 0 -580z"/>
<path d="M4660 10280 l0 -190 190 0 190 0 0 190 0 190 -190 0 -190 0 0 -190z"/>
<path d="M5430 10085 l0 -385 190 0 190 0 0 385 0 385 -190 0 -190 0 0 -385z"/>
<path d="M6210 10280 l0 -190 190 0 190 0 0 190 0 190 -190 0 -190 0 0 -190z"/>
<path d="M7760 10280 l0 -190 190 0 190 0 0 190 0 190 -190 0 -190 0 0 -190z"/>
<path d="M0 9305 l0 -385 190 0 190 0 0 195 0 195 195 0 195 0 0 190 0 190
-385 0 -385 0 0 -385z"/>
<path d="M1560 9305 l0 -385 -585 0 -585 0 0 -190 0 -190 193 -2 192 -3 3
-192 2 -193 190 0 190 0 0 195 0 195 390 0 390 0 0 -195 0 -195 190 0 190 0 2
193 3 192 195 0 195 0 3 -197 2 -198 -195 0 -195 0 0 -190 0 -190 580 0 580 0
0 190 0 190 -195 0 -195 0 0 390 0 390 -580 0 -580 0 0 195 0 195 385 0 385 0
0 190 0 190 -575 0 -575 0 0 -385z"/>
<path d="M4660 9500 l0 -190 190 0 190 0 0 190 0 190 -190 0 -190 0 0 -190z"/>
<path d="M10480 9305 l0 -385 190 0 190 0 0 -580 0 -580 385 0 385 0 0 385 0
385 -195 0 -195 0 0 195 0 195 -190 0 -190 0 0 385 0 385 -190 0 -190 0 0
-385z"/>
<path d="M11250 9500 l0 -190 195 0 195 0 0 -385 0 -385 385 0 385 0 0 190 0
190 -195 0 -195 0 0 195 0 195 390 0 390 0 0 190 0 190 -775 0 -775 0 0 -190z"/>
<path d="M6990 9115 l0 -195 190 0 190 0 0 195 0 195 -190 0 -190 0 0 -195z"/>
<path d="M9700 9115 l0 -195 190 0 190 0 0 195 0 195 -190 0 -190 0 0 -195z"/>
<path d="M3490 8535 l0 -385 195 0 195 0 0 195 0 195 190 0 190 0 0 190 0 190
-385 0 -385 0 0 -385z"/>
<path d="M10090 8730 l0 -190 190 0 190 0 0 190 0 190 -190 0 -190 0 0 -190z"/>
<path d="M0 8340 l0 -190 190 0 190 0 0 190 0 190 -190 0 -190 0 0 -190z"/>
<path d="M4660 8340 l0 -190 190 0 190 0 0 190 0 190 -190 0 -190 0 0 -190z"/>
<path d="M1170 7755 l0 -385 195 0 195 0 0 -195 0 -195 -195 0 -195 0 0 -190
0 -190 193 -2 192 -3 0 -390 0 -390 -197 -3 -198 -2 0 390 0 390 -190 0 -190
0 -2 -387 -3 -388 -388 -3 -387 -2 0 -190 0 -190 585 0 585 0 0 -190 0 -190
193 -2 192 -3 3 -387 2 -388 190 0 190 0 0 775 0 775 190 0 190 0 2 193 3 192
198 3 197 2 -2 -197 -3 -198 -192 -3 -193 -2 0 -190 0 -190 385 0 385 0 0 195
0 195 195 0 195 0 0 -195 0 -195 -190 0 -190 0 -2 -582 -3 -583 -387 -3 -388
-2 0 -190 0 -190 390 0 390 0 0 -195 0 -195 190 0 190 0 0 195 0 195 195 0
195 0 0 195 0 195 190 0 190 0 0 190 0 190 -385 0 -385 0 0 390 0 390 195 0
195 0 0 195 0 195 190 0 190 0 2 388 3 387 192 3 193 2 2 193 3 192 188 3 187
2 0 380 0 380 -185 0 -185 0 0 -190 0 -190 -200 0 -200 0 0 190 0 190 -385 0
-385 0 0 -190 0 -190 -580 0 -580 0 0 -190 0 -190 193 -2 192 -3 3 -198 2
-197 -197 2 -198 3 -3 193 -2 192 -190 0 -190 0 0 195 0 195 190 0 190 0 0
190 0 190 -385 0 -385 0 0 195 0 195 -190 0 -190 0 0 -385z m2710 -1355 l0
-200 -390 0 -390 0 0 200 0 200 390 0 390 0 0 -200z"/>
<path d="M4270 7950 l0 -190 190 0 190 0 0 190 0 190 -190 0 -190 0 0 -190z"/>
<path d="M5430 7955 l0 -185 190 0 190 0 0 185 0 185 -190 0 -190 0 0 -185z"/>
<path d="M10090 7950 l0 -190 190 0 190 0 0 190 0 190 -190 0 -190 0 0 -190z"/>
<path d="M12030 7950 l0 -190 385 0 385 0 0 190 0 190 -385 0 -385 0 0 -190z"/>
<path d="M0 7370 l0 -380 580 0 580 0 0 190 0 190 -390 0 -390 0 0 190 0 190
-190 0 -190 0 0 -380z"/>
<path d="M7770 7175 l0 -575 190 0 190 0 0 -195 0 -195 385 0 385 0 0 190 0
190 -195 0 -195 0 0 195 0 195 -195 0 -195 0 0 385 0 385 -185 0 -185 0 0
-575z"/>
<path d="M10480 7560 l0 -190 190 0 190 0 0 190 0 190 -190 0 -190 0 0 -190z"/>
<path d="M10090 7180 l0 -190 190 0 190 0 0 190 0 190 -190 0 -190 0 0 -190z"/>
<path d="M11250 7175 l0 -195 -195 0 -195 0 0 -195 0 -195 -385 0 -385 0 0
-190 0 -190 193 -2 192 -3 0 -195 0 -195 -192 -3 -193 -2 0 -190 0 -190 385 0
385 0 0 390 0 390 190 0 190 0 2 193 3 192 192 3 193 2 2 193 3 192 388 3 387
2 0 190 0 190 -580 0 -580 0 0 -195z"/>
<path d="M5934 7170 c-29 -12 -54 -49 -54 -81 0 -30 34 -79 56 -79 12 0 14
-34 14 -203 l0 -202 -80 -54 c-143 -95 -243 -222 -296 -376 -26 -74 -28 -92
-28 -245 l-1 -165 846 -3 846 -2 7 37 c3 21 6 86 6 144 0 195 -56 339 -188
480 -41 43 -105 99 -143 125 l-69 46 0 204 0 203 29 15 c32 17 41 34 41 77 0
44 -15 66 -53 78 -55 19 -100 -7 -116 -65 -11 -43 -26 -39 -61 17 l-32 52 -30
-51 c-16 -29 -32 -52 -36 -52 -3 0 -17 11 -31 24 l-26 24 -45 -23 c-25 -13
-40 -24 -35 -24 6 0 26 8 45 19 l35 18 31 -30 32 -30 27 51 c16 28 31 51 34
51 3 0 18 -21 34 -46 17 -28 33 -44 41 -41 7 3 23 -8 35 -24 12 -16 28 -29 36
-29 13 0 15 -31 15 -200 0 -110 -1 -200 -3 -200 -2 0 -32 11 -66 25 -214 87
-482 91 -700 9 -35 -13 -65 -24 -67 -24 -2 0 -4 85 -4 190 l0 189 29 16 c18 9
34 28 41 50 12 36 12 36 37 20 24 -16 26 -16 54 11 l29 28 30 -29 c16 -16 31
-27 33 -24 2 2 14 23 27 47 13 23 27 42 30 42 4 0 15 -20 24 -45 10 -25 21
-47 26 -50 5 -3 -3 22 -17 55 -15 33 -29 60 -32 60 -3 0 -19 -23 -35 -51 l-28
-51 -29 28 -29 28 -30 -29 -29 -28 -36 27 c-19 15 -35 31 -35 36 0 11 -53 40
-72 39 -7 0 -23 -4 -34 -9z m251 -1006 c63 -30 86 -102 50 -157 -22 -34 -94
-61 -138 -53 -43 8 -86 53 -93 97 -4 25 0 43 18 69 40 59 98 75 163 44z m561
0 c46 -22 64 -50 64 -100 0 -35 -6 -47 -34 -72 -61 -53 -136 -54 -180 -2 -33
39 -41 82 -23 117 36 69 102 91 173 57z"/>
<path d="M6374 7084 c-18 -14 -18 -15 5 -4 12 7 32 10 42 7 10 -3 17 -1 13 4
-8 14 -38 11 -60 -7z"/>
<path d="M4660 6400 l0 -190 185 0 185 0 0 190 0 190 -185 0 -185 0 0 -190z"/>
<path d="M9310 6400 l0 -190 190 0 190 0 0 190 0 190 -190 0 -190 0 0 -190z"/>
<path d="M12420 6400 l0 -190 190 0 190 0 0 190 0 190 -190 0 -190 0 0 -190z"/>
<path d="M7770 6010 l0 -190 185 0 185 0 0 190 0 190 -185 0 -185 0 0 -190z"/>
<path d="M8920 6005 l0 -195 -190 0 -190 0 0 -190 0 -190 385 0 385 0 0 -195
0 -195 -390 0 -390 0 0 195 0 195 -190 0 -190 0 0 -385 0 -385 385 0 385 0 0
-390 0 -390 -195 0 -195 0 0 190 0 190 -192 2 -193 3 -3 193 -2 192 -190 0
-190 0 0 -385 0 -385 195 0 195 0 0 -385 0 -385 385 0 385 0 0 190 0 190 195
0 195 0 0 -195 0 -195 -195 0 -195 0 0 -190 0 -190 195 0 195 0 0 -585 0 -585
-385 0 -385 0 0 -385 0 -385 385 0 385 0 0 195 0 195 388 -2 387 -3 3 -197 2
-198 -390 0 -390 0 0 -195 0 -195 -390 0 -390 0 0 195 0 195 -190 0 -190 0 -2
-192 -3 -193 -387 -3 -388 -2 0 195 0 195 -195 0 -195 0 0 195 0 195 -190 0
-190 0 0 -195 0 -195 -200 0 -200 0 2 198 3 197 193 3 192 2 0 190 0 190 -390
0 -390 0 0 195 0 195 195 0 195 0 0 390 0 390 200 0 200 0 0 -580 0 -580 965
0 965 0 0 575 0 575 -195 0 -195 0 0 195 0 195 -190 0 -190 0 0 -385 0 -385
195 0 195 0 0 -195 0 -195 -200 0 -200 0 0 190 0 190 -190 0 -190 0 0 -190 0
-190 -195 0 -195 0 0 585 0 585 195 0 195 0 0 190 0 190 -195 0 -195 0 0 195
0 195 -190 0 -190 0 0 -390 0 -390 -775 0 -775 0 0 -190 0 -190 385 0 385 0 0
-200 0 -200 -195 0 -195 0 0 -190 0 -190 -190 0 -190 0 0 -190 0 -190 190 0
190 0 0 -200 0 -200 -195 0 -195 0 0 195 0 195 -190 0 -190 0 0 -195 0 -195
-585 0 -585 0 0 -195 0 -195 -190 0 -190 0 0 -385 0 -385 190 0 190 0 0 195 0
195 580 0 580 0 0 195 0 195 198 -2 197 -3 0 -195 0 -195 -192 -3 -193 -2 0
-190 0 -190 385 0 385 0 0 390 0 390 195 0 195 0 0 -390 0 -390 2130 0 2130 0
0 195 0 195 390 0 390 0 0 190 0 190 -195 0 -195 0 0 395 0 395 195 0 195 0 0
-390 0 -390 190 0 190 0 2 193 3 192 193 3 192 2 0 190 0 190 -195 0 -195 0 2
583 3 582 198 3 197 2 0 -195 0 -195 385 0 385 0 0 580 0 580 -190 0 -190 0 0
-195 0 -195 -200 0 -200 0 0 195 0 195 -385 0 -385 0 0 195 0 195 -195 0 -195
0 0 190 0 190 -192 2 -193 3 -3 192 -2 193 -193 2 -192 3 0 195 0 195 193 3
192 2 0 190 0 190 -385 0 -385 0 0 385 0 385 -195 0 -195 0 0 -195z m1170
-2320 l0 -195 -390 0 -390 0 0 195 0 195 390 0 390 0 0 -195z m770 -1160 l0
-585 -585 0 -585 0 0 578 c0 318 3 582 7 585 3 4 267 7 585 7 l578 0 0 -585z"/>
<path d="M10090 2520 l0 -190 190 0 190 0 0 190 0 190 -190 0 -190 0 0 -190z"/>
<path d="M9700 6010 l0 -190 190 0 190 0 0 190 0 190 -190 0 -190 0 0 -190z"/>
<path d="M11250 6010 l0 -190 190 0 190 0 0 190 0 190 -190 0 -190 0 0 -190z"/>
<path d="M11640 5620 l0 -190 385 0 385 0 0 190 0 190 -385 0 -385 0 0 -190z"/>
<path d="M5540 5660 l0 -50 860 0 860 0 0 50 0 50 -860 0 -860 0 0 -50z"/>
<path d="M4660 5240 l0 -190 185 0 185 0 0 190 0 190 -185 0 -185 0 0 -190z"/>
<path d="M11250 5240 l0 -190 190 0 190 0 0 190 0 190 -190 0 -190 0 0 -190z"/>
<path d="M780 4850 l0 -190 190 0 190 0 0 190 0 190 -190 0 -190 0 0 -190z"/>
<path d="M2330 4850 l0 -190 190 0 190 0 0 190 0 190 -190 0 -190 0 0 -190z"/>
<path d="M4270 4850 l0 -190 190 0 190 0 0 190 0 190 -190 0 -190 0 0 -190z"/>
<path d="M10090 4850 l0 -190 190 0 190 0 0 190 0 190 -190 0 -190 0 0 -190z"/>
<path d="M10860 4850 l0 -190 190 0 190 0 0 190 0 190 -190 0 -190 0 0 -190z"/>
<path d="M12420 4850 l0 -190 190 0 190 0 0 190 0 190 -190 0 -190 0 0 -190z"/>
<path d="M6600 4845 l0 -185 385 0 385 0 0 185 0 185 -385 0 -385 0 0 -185z"/>
<path d="M0 4460 l0 -190 385 0 385 0 0 190 0 190 -385 0 -385 0 0 -190z"/>
<path d="M4658 4458 l-3 -193 -192 -3 -193 -2 0 -385 0 -385 190 0 190 0 0
195 0 195 195 0 195 0 0 195 0 195 195 0 195 0 0 -195 0 -195 580 0 580 0 0
385 0 385 -965 0 -965 0 -2 -192z"/>
<path d="M11250 4460 l0 -190 190 0 190 0 0 190 0 190 -190 0 -190 0 0 -190z"/>
<path d="M6990 4070 l0 -190 190 0 190 0 0 190 0 190 -190 0 -190 0 0 -190z"/>
<path d="M11640 4070 l0 -190 385 0 385 0 0 190 0 190 -385 0 -385 0 0 -190z"/>
<path d="M780 3685 l0 -195 -390 0 -390 0 0 -190 0 -190 775 0 775 0 0 190 0
190 -195 0 -195 0 0 195 0 195 -190 0 -190 0 0 -195z"/>
<path d="M1940 3495 l0 -385 580 0 580 0 0 190 0 190 -390 0 -390 0 0 195 0
195 -190 0 -190 0 0 -385z"/>
<path d="M4660 3300 l0 -190 190 0 190 0 0 190 0 190 -190 0 -190 0 0 -190z"/>
<path d="M3110 2910 l0 -190 385 0 385 0 0 -200 0 -200 -385 0 -385 0 0 -380
0 -380 770 0 770 0 0 190 0 190 -195 0 -195 0 0 580 0 580 -575 0 -575 0 0
-190z"/>
<path d="M0 1355 l0 -1355 1355 0 1355 0 0 1355 0 1355 -1355 0 -1355 0 0
-1355z m2330 0 l0 -975 -972 2 -973 3 -3 973 -2 972 975 0 975 0 0 -975z"/>
<path d="M780 1360 l0 -580 580 0 580 0 0 580 0 580 -580 0 -580 0 0 -580z"/>
<path d="M4660 2130 l0 -190 190 0 190 0 0 190 0 190 -190 0 -190 0 0 -190z"/>
<path d="M12420 2130 l0 -190 -195 0 -195 0 0 -390 0 -390 -195 0 -195 0 0
-190 0 -190 385 0 385 0 0 195 0 195 195 0 195 0 0 575 0 575 -190 0 -190 0 0
-190z"/>
<path d="M7760 970 l0 -190 190 0 190 0 0 190 0 190 -190 0 -190 0 0 -190z"/>
<path d="M11250 190 l0 -190 190 0 190 0 0 190 0 190 -190 0 -190 0 0 -190z"/>
<path d="M12420 190 l0 -190 190 0 190 0 0 190 0 190 -190 0 -190 0 0 -190z"/>
</g>
</svg>
